<svg xmlns="http://www.w3.org/2000/svg" viewBox="0 0 312.58 262.41"><defs><style>.cls-1,.cls-3{fill:#e45828;}.cls-2{fill:#3d3d3d;}.cls-3{stroke:#3d3d3d;stroke-linecap:round;stroke-linejoin:round;stroke-width:4px;}</style></defs><title>Asset 23</title><g id="Layer_2" data-name="Layer 2"><g id="Layer_1-2" data-name="Layer 1"><path class="cls-1" d="M237.16,202.79c-3.65,0-9-1.59-15.53-4.58a204.65,204.65,0,0,0-110.09-34.55L97.66,83.23A184.35,184.35,0,0,0,148.45,54,184.45,184.45,0,0,0,186.8,11.38C191.08,5.26,195,2,198.14,2a3.69,3.69,0,0,1,.58,0c5.86.75,13.18,27,22.36,80.24,3.09,17.92,4.87,30,6.29,39.77,1.85,12.66,3.08,21,5.78,32.6,1.09,4.68,1.86,9.56,2.6,14.27.79,5,1.6,10.2,2.82,15.25.42,1.73.82,3.34,1.2,4.81,1.73,6.85,2.77,11,1.21,12.65C240.25,202.4,239,202.79,237.16,202.79Z"/><path class="cls-2" d="M198.14,4l.32,0c.21,0,2.15.53,5.48,10,4.33,12.3,9.44,35.39,15.17,68.62,3.09,17.9,4.86,30,6.28,39.72,1.86,12.71,3.09,21.11,5.81,32.76,1.08,4.62,1.84,9.45,2.57,14.13.8,5.05,1.62,10.27,2.86,15.41q.63,2.61,1.2,4.83c1.17,4.65,2.5,9.93,1.69,10.79a3.66,3.66,0,0,1-2.36.53c-3.29,0-8.45-1.54-14.55-4.34A206.5,206.5,0,0,0,113.24,161.7l-8.67-50.18-4.66-27a186.22,186.22,0,0,0,49.8-29,186.48,186.48,0,0,0,38.73-43C193.83,4.83,197,4,198.14,4m0-4c-3,0-7.26,2.06-13,10.29a182.81,182.81,0,0,1-37.93,42.15,182.77,182.77,0,0,1-51.78,29.5q7.22,41.85,14.45,83.69A202.71,202.71,0,0,1,220.65,200c3.87,1.79,11.13,4.83,16.51,4.83,2.18,0,4.06-.5,5.27-1.79,2.76-2.92.71-8.4-1.91-19.3-2.35-9.72-3.15-19.77-5.42-29.51-4.77-20.42-5-31.22-12-72.25C209.93,5.86,203.29.6,199,.05a7.4,7.4,0,0,0-.83,0Z"/><path class="cls-1" d="M39.88,175.06a40.09,40.09,0,0,1-19.81-6.86A40.73,40.73,0,0,1,4,145.25l0-.11A40.66,40.66,0,0,1,5.12,117,40.22,40.22,0,0,1,22.62,97.7l56.81-9.85,17.18,75.63Z"/><path class="cls-2" d="M77.9,90.14l16.31,71.79L39.75,173.05a38.14,38.14,0,0,1-18.55-6.5A39.39,39.39,0,0,1,5.94,144.73l-.06-.21A38.67,38.67,0,0,1,7,117.82a38.19,38.19,0,0,1,16.33-18.2L50.11,95,77.9,90.14m3-4.59L22,95.79a41.8,41.8,0,0,0-19.87,50,43.12,43.12,0,0,0,16.86,24.09A42.17,42.17,0,0,0,40,177.07l59-12L81,85.55Z"/><path class="cls-1" d="M88.61,260.41a28.37,28.37,0,0,1-18-6.84l-23-64.49,44-3.85L107.86,240c0,2.78-.53,10.87-6.38,16A19.51,19.51,0,0,1,88.61,260.41Z"/><path class="cls-2" d="M90.09,187.37l15.77,52.91c0,2.76-.66,9.78-5.7,14.18a17.44,17.44,0,0,1-11.54,4,26.3,26.3,0,0,1-16.31-6L61.09,221,50.34,190.84l39.75-3.47M93,183.1l-48.17,4.21,24.08,67.44a30.55,30.55,0,0,0,19.71,7.66,21.37,21.37,0,0,0,14.17-4.94c7-6.13,7.09-15.81,7.07-17.77L93,183.1Z"/><line class="cls-3" x1="243.74" y1="51.95" x2="281.03" y2="15.84"/><line class="cls-3" x1="253.68" y1="97.9" x2="310.58" y2="85.55"/><line class="cls-3" x1="262.39" y1="140.58" x2="305.11" y2="160.88"/></g></g></svg>