<svg xmlns="http://www.w3.org/2000/svg" viewBox="0 0 311.21 370.32"><defs><style>.cls-1,.cls-2{fill:none;stroke-linecap:round;stroke-linejoin:round;stroke-width:4px;}.cls-1{stroke:#3d3d3d;}.cls-2{stroke:#e45828;}.cls-3{fill:#3d3d3d;}</style></defs><title>Asset 30</title><g id="Layer_2" data-name="Layer 2"><g id="Layer_1-2" data-name="Layer 1"><polyline class="cls-1" points="196.8 340.11 2 340.11 2 51.39 254.1 51.39 254.1 250.64"/><line class="cls-2" x1="66.93" y1="134.61" x2="196.8" y2="134.61"/><polygon class="cls-3" points="57.26 132.28 52.62 132.28 52.62 136.93 57.26 136.93 57.26 132.28 57.26 132.28"/><line class="cls-2" x1="66.93" y1="176" x2="196.8" y2="176"/><polygon class="cls-3" points="57.26 173.67 52.62 173.67 52.62 178.32 57.26 178.32 57.26 173.67 57.26 173.67"/><line class="cls-2" x1="66.93" y1="214.87" x2="196.8" y2="214.87"/><polygon class="cls-3" points="57.26 212.55 52.62 212.55 52.62 217.19 57.26 217.19 57.26 212.55 57.26 212.55"/><line class="cls-2" x1="66.93" y1="249.48" x2="196.8" y2="249.48"/><polygon class="cls-3" points="57.26 247.16 52.62 247.16 52.62 251.81 57.26 251.81 57.26 247.16 57.26 247.16"/><path class="cls-1" d="M293.42,271.4a57.16,57.16,0,1,1-16.73-12.2"/><path class="cls-1" d="M283.61,263.15a57.06,57.06,0,0,1,5.42,4.1"/><path class="cls-1" d="M276.69,259.2a58.3,58.3,0,0,1,6.92,3.95"/><path class="cls-1" d="M223.48,310.94l15.72,22.95a5,5,0,0,0,8.27-.15L280.15,282"/><path class="cls-3" d="M127.94,4c16,0,30.37,11.82,35,28.74a4,4,0,0,0,3.85,2.95,4.38,4.38,0,0,0,.88-.09,33.59,33.59,0,0,1,7.34-.83c11.73,0,22.13,6.9,24.17,16,1.56,7-2.11,13.73-4.38,17.08H68.32C62.32,63,59,56.22,59.71,50.45c1-7.58,9.53-15.75,21.69-15.75a28.45,28.45,0,0,1,6.91.87,3.7,3.7,0,0,0,1,.12,4,4,0,0,0,3.86-3C97.55,16.38,110.85,4.85,126.24,4c.56,0,1.14,0,1.7,0m0-4c-.64,0-1.27,0-1.91.05-17,.89-31.9,13.63-36.74,31.64a32.47,32.47,0,0,0-7.89-1C67.61,30.7,57,40,55.74,49.94c-1,7.84,3.76,16.35,11.19,22H196.8c1.25-1.61,8.63-11.36,6.26-22S189.35,30.77,175,30.77a37.5,37.5,0,0,0-8.21.92C161.65,12.84,145.58,0,127.94,0Z"/></g></g></svg>