<svg xmlns="http://www.w3.org/2000/svg" viewBox="0 0 228.67 187.21"><defs><style>.cls-1{fill:#3d3d3d;}.cls-2,.cls-3{fill:#e45828;}.cls-3,.cls-4{stroke:#3d3d3d;stroke-linecap:round;stroke-linejoin:round;stroke-width:4px;}.cls-4{fill:none;}</style></defs><title>Asset 4</title><g id="Layer_2" data-name="Layer 2"><g id="Layer_1-2" data-name="Layer 1"><path class="cls-1" d="M155.53,4V162.87H48.69V4H155.53m4-4H44.69V166.87H159.53V0Z"/><path class="cls-2" d="M66.85,30.48a5.81,5.81,0,1,1,5.81-5.81A5.81,5.81,0,0,1,66.85,30.48Z"/><path class="cls-1" d="M66.85,20.87a3.81,3.81,0,1,1-3.8,3.8,3.81,3.81,0,0,1,3.8-3.8m0-4a7.81,7.81,0,1,0,7.81,7.8,7.8,7.8,0,0,0-7.81-7.8Z"/><line class="cls-3" x1="92.42" y1="24.67" x2="114.31" y2="24.67"/><path class="cls-2" d="M146.34,93.81a12.53,12.53,0,1,1,0-25.06h24a12.53,12.53,0,1,1,0,25.06Z"/><path class="cls-1" d="M170.38,70.75a10.53,10.53,0,0,1,0,21.06h-24a10.53,10.53,0,1,1,0-21.06h24m0-4h-24A14.53,14.53,0,0,0,131.8,81.28h0a14.53,14.53,0,0,0,14.54,14.53h24a14.52,14.52,0,0,0,14.53-14.53h0a14.52,14.52,0,0,0-14.53-14.53Z"/><path class="cls-2" d="M143.88,85.44A4.16,4.16,0,1,1,148,81.28,4.16,4.16,0,0,1,143.88,85.44Z"/><path class="cls-1" d="M143.88,79.12a2.16,2.16,0,1,1-2.15,2.16,2.16,2.16,0,0,1,2.15-2.16m0-4A6.16,6.16,0,1,0,150,81.28a6.15,6.15,0,0,0-6.16-6.16Z"/><path class="cls-2" d="M131,164.87a2.26,2.26,0,0,1-2.25-2.26V131.76A2.25,2.25,0,0,1,131,129.5h54.79a2.26,2.26,0,0,1,2.26,2.26v30.85a2.26,2.26,0,0,1-2.26,2.26Z"/><path class="cls-1" d="M185.75,131.5a.26.26,0,0,1,.26.26v30.85a.26.26,0,0,1-.26.26H131a.26.26,0,0,1-.25-.26V131.76a.24.24,0,0,1,.07-.18.25.25,0,0,1,.18-.08h54.79m0-4H131a4.27,4.27,0,0,0-4.25,4.26v30.85a4.25,4.25,0,0,0,4.25,4.26h54.79a4.26,4.26,0,0,0,4.26-4.26V131.76a4.26,4.26,0,0,0-4.26-4.26Z"/><path class="cls-3" d="M127.92,128.79l30.44,22.29,30-20.32"/><path class="cls-4" d="M159.53,111.61h67.14v73.14l-98.62.46-.71-20.37h0l23-17.44"/><polyline class="cls-3" points="19.9 32.48 28.53 18.48 37.15 32.48"/><path class="cls-2" d="M28.79,146.93a10.82,10.82,0,0,1-8.59-4V34.48H37.3V143a10.72,10.72,0,0,1-7.82,4C29.25,146.93,29,146.93,28.79,146.93Z"/><path class="cls-1" d="M35.3,36.48V142.2a8.88,8.88,0,0,1-5.93,2.72h-.58a9,9,0,0,1-6.59-2.67V36.48H35.3m4-4H18.2V143.59a12.58,12.58,0,0,0,10.59,5.34c.27,0,.54,0,.81,0a12.67,12.67,0,0,0,9.7-5.32V32.48Z"/><line class="cls-3" x1="28.53" y1="18.48" x2="28.53" y2="8.13"/><path class="cls-4" d="M2,115.84v10.48a10,10,0,0,0,10,10H37.15"/></g></g></svg>