<svg xmlns="http://www.w3.org/2000/svg" viewBox="0 0 151.46 175.02"><defs><style>.cls-1{fill:#e45828;stroke:#3d3d3d;stroke-linecap:round;stroke-linejoin:round;stroke-width:4px;}.cls-2{fill:#fff;}</style></defs><title>Asset 24</title><g id="Layer_2" data-name="Layer 2"><g id="Layer_1-2" data-name="Layer 1"><line class="cls-1" x1="57.76" y1="160.23" x2="90.01" y2="159.35"/><line class="cls-1" x1="63.51" y1="166.36" x2="84.26" y2="165.86"/><line class="cls-1" x1="33.75" y1="13.96" x2="47.14" y2="28.47"/><line class="cls-1" x1="73.6" y1="2" x2="73.91" y2="21.74"/><line class="cls-1" x1="122.81" y1="97.64" x2="139.59" y2="108.05"/><line class="cls-1" x1="24.9" y1="96.68" x2="6.88" y2="107.09"/><line class="cls-1" x1="24.28" y1="47.83" x2="7.5" y2="37.43"/><line class="cls-1" x1="110.74" y1="118.15" x2="127.52" y2="128.56"/><line class="cls-1" x1="18.78" y1="75.67" x2="2" y2="76.08"/><line class="cls-1" x1="149.46" y1="75.63" x2="129.72" y2="75.3"/><line class="cls-1" x1="36.45" y1="118.15" x2="20.84" y2="128.56"/><line class="cls-1" x1="139.59" y1="37.43" x2="122.81" y2="47.83"/><path class="cls-1" d="M56.23,154.6l35.33-1.16c1.45-7,2.4-25.29,5.31-35.16,1.35-4.59,9.56-16.31,12.26-20.06,17.85-24.82.21-47.15-6-52.11S90.2,37,82.67,35.56c-5.39-1-7.91-.91-8.91-.75-1-.16-3.52-.29-8.91.75C57.32,37,50.65,41.14,44.41,46.11s-23.88,27.29-6,52.11c2.69,3.75,10.91,15.47,12.26,20.06,3.09,10.49,4,30.49,5.58,36.32"/><line class="cls-1" x1="67.78" y1="173.02" x2="79.99" y2="172.34"/><path class="cls-2" d="M73.52,57.46h2.32a3.84,3.84,0,0,1,.76.08.53.53,0,0,1,.26.13s.09.13.09.47a3.37,3.37,0,0,1,0,.44c0,.19,0,.39-.07.59-.06.49-.14,1-.24,1.51l0,.08a1,1,0,0,0,.78,1.17l.08,0A18.12,18.12,0,0,1,81,63.08l.07,0a.91.91,0,0,0,.39.08,1,1,0,0,0,.91-.58l0-.07c.13-.3.27-.59.42-.88s.39-.74.59-1.09a4,4,0,0,1,.38-.54.61.61,0,0,1,.21-.16l-.25-1,.3,1a2.08,2.08,0,0,1,.89.44c.6.41,3.13,2.25,3.71,2.69a3.46,3.46,0,0,1,.57.51.49.49,0,0,1,.13.27c0,.08-.06.28-.48.76-.3.33-.61.67-1,1l-.54.52-.06,0a1,1,0,0,0-.06,1.41l0,.06a17.82,17.82,0,0,1,2.24,3l0,.06a1,1,0,0,0,.86.49A1,1,0,0,0,91,71l.07,0c.32-.19.65-.36,1-.53s.65-.32,1-.47a2.57,2.57,0,0,1,.78-.23h.1c.08,0,.16.15.2.21a3.64,3.64,0,0,1,.31.7c.24.68,1.21,3.66,1.42,4.36a3.42,3.42,0,0,1,.16.81.42.42,0,0,1,0,.22s0,.08-.23.15a3.26,3.26,0,0,1-.61.19c-.66.14-1.37.26-2.1.35h-.08a1,1,0,0,0-.88,1.1v.08A18.09,18.09,0,0,1,92.18,80c0,.55,0,1.12-.08,1.68v.08A1,1,0,0,0,93,82.85h.08a20.82,20.82,0,0,1,2.19.37c.64.13.8.27.84.34a.37.37,0,0,1,0,.21,3,3,0,0,1-.16.81c-.2.7-1.17,3.68-1.41,4.37a4.28,4.28,0,0,1-.31.69.51.51,0,0,1-.2.21h-.1a2.64,2.64,0,0,1-.79-.23,21,21,0,0,1-1.9-1l-.07,0a1,1,0,0,0-.49-.13,1,1,0,0,0-.87.51l0,.07a18.56,18.56,0,0,1-2.17,3.05l0,.06a1,1,0,0,0,.07,1.4l.06,0a21.08,21.08,0,0,1,1.56,1.58,3.23,3.23,0,0,1,.43.58.57.57,0,0,1,0,.19.62.62,0,0,1-.14.25,3.85,3.85,0,0,1-.56.51c-.58.44-3.11,2.28-3.71,2.7a2,2,0,0,1-.89.43h-.05a.49.49,0,0,1-.21-.15,3.87,3.87,0,0,1-.38-.55c-.34-.58-.67-1.22-1-1.89l0-.07a1,1,0,0,0-.9-.58,1.06,1.06,0,0,0-.42.09l-.07,0A18.55,18.55,0,0,1,77.83,98h-.08A1,1,0,0,0,77,99.17l0,.07q.22,1.13.33,2.19c0,.15,0,.29,0,.44,0,.34-.07.45-.09.47a.5.5,0,0,1-.26.13,3.74,3.74,0,0,1-.75.07l-2.27,0-2.32,0a3.74,3.74,0,0,1-.75-.07.5.5,0,0,1-.26-.13s-.09-.13-.09-.47c0-.15,0-.29,0-.44.07-.67.18-1.38.32-2.1v-.08a1,1,0,0,0-.78-1.18h-.08a18.72,18.72,0,0,1-3.57-1.12l-.08,0a.88.88,0,0,0-.39-.08,1,1,0,0,0-.91.58l0,.07c-.32.69-.66,1.35-1,2a3,3,0,0,1-.38.55.49.49,0,0,1-.21.15h0a2.08,2.08,0,0,1-.89-.44c-.6-.41-3.13-2.25-3.71-2.7a3.78,3.78,0,0,1-.56-.5.58.58,0,0,1-.14-.27c0-.08.06-.29.49-.76A21.19,21.19,0,0,1,60.1,94l.06-.06a1,1,0,0,0,.06-1.4l-.06-.06a18.76,18.76,0,0,1-2.23-3l0-.07a1,1,0,0,0-.86-.49,1.13,1.13,0,0,0-.5.13l-.06,0a21.49,21.49,0,0,1-2,1,2.37,2.37,0,0,1-.79.24.16.16,0,0,1-.1,0,.67.67,0,0,1-.2-.21,3.27,3.27,0,0,1-.3-.69c-.25-.69-1.21-3.66-1.42-4.36a3,3,0,0,1-.16-.82.39.39,0,0,1,0-.21c0-.07.21-.2.85-.34a18.76,18.76,0,0,1,2.1-.35h.08a1,1,0,0,0,.87-1.11v-.07c-.07-.7-.11-1.39-.11-2.07s0-1.12.07-1.69v-.07a1,1,0,0,0-.88-1.09h-.08a20.65,20.65,0,0,1-2.18-.36c-.64-.14-.81-.27-.85-.34a.49.49,0,0,1,0-.21,3.4,3.4,0,0,1,.16-.82c.21-.69,1.18-3.67,1.42-4.36a3.3,3.3,0,0,1,.31-.69.51.51,0,0,1,.2-.21s0,0,.1,0a2.39,2.39,0,0,1,.78.24c.38.16.77.35,1.15.55l.76.4.07,0a1,1,0,0,0,.48.12,1,1,0,0,0,.87-.5l0-.07a18.7,18.7,0,0,1,2.18-3.06l.05,0a1,1,0,0,0-.08-1.4l-.05,0c-.56-.52-1.09-1-1.56-1.58s-.48-.68-.48-.77a.5.5,0,0,1,.13-.26,3.41,3.41,0,0,1,.57-.5c.58-.45,3.11-2.29,3.71-2.7a2.08,2.08,0,0,1,.89-.44h0a.55.55,0,0,1,.21.15,3.58,3.58,0,0,1,.38.55c.34.58.67,1.22,1,1.88l0,.08a1,1,0,0,0,.91.58,1,1,0,0,0,.41-.09l.08,0A18.29,18.29,0,0,1,69.69,62l.08,0a1,1,0,0,0,.76-1.17l0-.08c-.15-.74-.26-1.48-.33-2.18,0-.15,0-.3,0-.44a1.39,1.39,0,0,1,0-.32.44.44,0,0,1,.06-.16.68.68,0,0,1,.26-.12,3.84,3.84,0,0,1,.76-.08h2.26M73.76,91h0a10.93,10.93,0,1,0-6.54-2.16A11,11,0,0,0,73.76,91m-.24-34.49H71.23a4.6,4.6,0,0,0-1,.11,1.45,1.45,0,0,0-.78.46,1.3,1.3,0,0,0-.27.58,3,3,0,0,0,0,.53c0,.17,0,.36,0,.53.08.77.2,1.53.35,2.29v.08h-.07a19.92,19.92,0,0,0-3.75,1.26l-.07,0,0-.07c-.32-.68-.66-1.34-1-2a4.66,4.66,0,0,0-.51-.72,1.46,1.46,0,0,0-.69-.44,1,1,0,0,0-.3,0h0a2.8,2.8,0,0,0-1.46.62c-.59.41-3.14,2.25-3.75,2.72a4.24,4.24,0,0,0-.73.67,1.45,1.45,0,0,0-.36.82V64a2.28,2.28,0,0,0,.73,1.42,23.08,23.08,0,0,0,1.63,1.65l.06.06-.05.06a19.4,19.4,0,0,0-2.3,3.22l0,.06-.06,0c-.26-.15-.53-.29-.79-.42s-.8-.4-1.21-.58a3.25,3.25,0,0,0-1.18-.32h0a1.22,1.22,0,0,0-.46.09,1.46,1.46,0,0,0-.68.6,4,4,0,0,0-.4.9c-.24.68-1.22,3.67-1.44,4.41a4.18,4.18,0,0,0-.2,1.1,1.32,1.32,0,0,0,.2.75,2.26,2.26,0,0,0,1.47.78c.76.16,1.52.29,2.29.38h.08v.07c-.05.59-.08,1.18-.08,1.78a19.77,19.77,0,0,0,.12,2.18v.07h-.08c-.74.09-1.47.21-2.2.37a2.28,2.28,0,0,0-1.48.78,1.4,1.4,0,0,0-.19.75,3.81,3.81,0,0,0,.2,1.1c.21.7,1.18,3.69,1.43,4.41a4.59,4.59,0,0,0,.41.9,1.41,1.41,0,0,0,.68.6,1.22,1.22,0,0,0,.46.09h0A3.25,3.25,0,0,0,54.89,91a22.23,22.23,0,0,0,2.07-1l.07,0,0,.07a19.34,19.34,0,0,0,2.36,3.17l0,.06-.06,0a21.39,21.39,0,0,0-1.56,1.6,2.3,2.3,0,0,0-.74,1.42v.08a1.4,1.4,0,0,0,.37.82,4.24,4.24,0,0,0,.73.67c.57.44,3.11,2.29,3.75,2.72a2.81,2.81,0,0,0,1.45.62h0a1,1,0,0,0,.29,0,1.42,1.42,0,0,0,.69-.44,4.07,4.07,0,0,0,.51-.72c.39-.67.75-1.35,1.07-2l0-.07.07,0A19.78,19.78,0,0,0,69.87,99h.07v.08a20.87,20.87,0,0,0-.33,2.2,4.89,4.89,0,0,0,0,.54,1.68,1.68,0,0,0,.32,1.11,1.4,1.4,0,0,0,.78.45,4,4,0,0,0,1,.11l2.34,0,2.29,0a4,4,0,0,0,1-.11A1.4,1.4,0,0,0,78,103a1.68,1.68,0,0,0,.32-1.11,4.89,4.89,0,0,0,0-.54A22,22,0,0,0,78,99.05L78,99l.08,0a19.14,19.14,0,0,0,3.74-1.26l.08,0,0,.07a20.63,20.63,0,0,0,1,2,4.07,4.07,0,0,0,.51.72,1.46,1.46,0,0,0,.69.44,1.43,1.43,0,0,0,.29,0h0a2.79,2.79,0,0,0,1.45-.61c.6-.41,3.14-2.26,3.75-2.72a3.9,3.9,0,0,0,.73-.67,1.43,1.43,0,0,0,.37-.83V96a1.48,1.48,0,0,0-.15-.61,3.55,3.55,0,0,0-.59-.82,22.91,22.91,0,0,0-1.62-1.65l-.06,0,0-.06a19.18,19.18,0,0,0,2.29-3.22l0-.07.07,0a21.67,21.67,0,0,0,2,1,3.11,3.11,0,0,0,1.19.32h0a1.26,1.26,0,0,0,.47-.08,1.44,1.44,0,0,0,.67-.6,4.59,4.59,0,0,0,.41-.9c.24-.68,1.21-3.67,1.43-4.41a3.55,3.55,0,0,0,.2-1.1,1.38,1.38,0,0,0-.19-.75,2.18,2.18,0,0,0-1.48-.78,22.12,22.12,0,0,0-2.28-.38h-.08v-.08c.05-.58.08-1.17.08-1.77a19.64,19.64,0,0,0-.12-2.18v-.08h.08c.73-.09,1.47-.21,2.2-.37a4.35,4.35,0,0,0,.8-.24,1.44,1.44,0,0,0,.67-.54,1.38,1.38,0,0,0,.2-.75,3.89,3.89,0,0,0-.21-1.1c-.2-.69-1.17-3.68-1.43-4.41a4.08,4.08,0,0,0-.41-.9,1.44,1.44,0,0,0-.67-.6,1.26,1.26,0,0,0-.47-.08h0a3,3,0,0,0-1.18.32c-.35.15-.7.31-1,.49s-.7.35-1,.54l-.07,0,0-.06a19.85,19.85,0,0,0-2.36-3.18l0-.05,0-.06.57-.54c.35-.34.68-.69,1-1a2.31,2.31,0,0,0,.73-1.43V63.7h0a1.48,1.48,0,0,0-.36-.83,4.63,4.63,0,0,0-.73-.66c-.57-.44-3.12-2.29-3.75-2.73a2.79,2.79,0,0,0-1.46-.61h0a1,1,0,0,0-.3,0,1.39,1.39,0,0,0-.69.44,4.23,4.23,0,0,0-.51.72c-.22.37-.43.75-.62,1.14s-.3.6-.44.91l0,.07-.08,0A18.56,18.56,0,0,0,77.65,61l-.08,0,0-.07c.1-.53.19-1.06.26-1.58,0-.21.05-.42.07-.63s0-.36,0-.53A1.66,1.66,0,0,0,77.63,57a1.45,1.45,0,0,0-.78-.46,4.53,4.53,0,0,0-1-.11ZM73.76,90A9.95,9.95,0,1,1,83.7,80,9.93,9.93,0,0,1,73.76,90Z"/><line class="cls-1" x1="115.06" y1="14.19" x2="101.19" y2="28.24"/></g></g></svg>