<svg xmlns="http://www.w3.org/2000/svg" viewBox="0 0 134.9 158.08"><defs><style>.cls-1,.cls-3,.cls-4{fill:#e45828;}.cls-2{fill:#3d3d3d;}.cls-3,.cls-4,.cls-5{stroke:#3d3d3d;stroke-linecap:round;stroke-linejoin:round;}.cls-3{stroke-width:2px;}.cls-4,.cls-5{stroke-width:4px;}.cls-5{fill:none;}</style></defs><title>Asset 6</title><g id="Layer_2" data-name="Layer 2"><g id="Layer_1-2" data-name="Layer 1"><path class="cls-1" d="M66.21,135a5.53,5.53,0,1,1,5.53-5.53A5.53,5.53,0,0,1,66.21,135Z"/><path class="cls-2" d="M66.21,125.89a3.53,3.53,0,1,1-3.52,3.53,3.54,3.54,0,0,1,3.52-3.53m0-4a7.53,7.53,0,1,0,7.53,7.53,7.53,7.53,0,0,0-7.53-7.53Z"/><path class="cls-1" d="M55.58,156.08v-9.51a14.51,14.51,0,0,1,3.84-6.73,11.75,11.75,0,0,1,6.8-3.26,11.26,11.26,0,0,1,6.65,3.24A13.5,13.5,0,0,1,76.34,146v10.13Z"/><path class="cls-2" d="M66.22,138.6a9.17,9.17,0,0,1,5.24,2.64,11.58,11.58,0,0,1,2.88,5v7.86H57.58v-7.24a12.26,12.26,0,0,1,3.23-5.56,9.73,9.73,0,0,1,5.41-2.68m0-4A13.71,13.71,0,0,0,58,138.4a16.48,16.48,0,0,0-4.45,7.93v11.75H78.34V145.69a15.64,15.64,0,0,0-4.06-7.29,13.19,13.19,0,0,0-8.07-3.83Z"/><polyline class="cls-3" points="62.74 138.06 62.74 147.93 65.78 155.37 69.97 147.79 69.97 137.75"/><polygon class="cls-1" points="26.29 71.25 26.61 70.9 27.59 71.89 27.27 72.24 26.29 71.25"/><path class="cls-2" d="M26.6,68.62a1.39,1.39,0,0,0-1,.45l-2,2.22,3.79,3.84,2.39-2.58a1,1,0,0,0,0-1.38L27.58,69a1.38,1.38,0,0,0-1-.42Z"/><polygon class="cls-1" points="0 100.89 2.04 94.42 5.84 98.45 0 100.89"/><polygon class="cls-2" points="2.04 94.42 0 100.89 5.84 98.45 2.04 94.42 2.04 94.42"/><polygon class="cls-1" points="4.18 94.31 23.49 73.46 25.39 75.38 6.07 96.23 4.18 94.31"/><path class="cls-2" d="M25.65,74.07h0m-2.18-3a1,1,0,0,0-.76.34L2.15,93.56a1.15,1.15,0,0,0,0,1.57l3.19,3.23a1,1,0,0,0,.73.31,1,1,0,0,0,.76-.33L27.42,76.13a1.14,1.14,0,0,0,0-1.56L24.2,71.33a1,1,0,0,0-.73-.31Z"/><path class="cls-4" d="M129,85.37l2.66.46a2.15,2.15,0,0,0,1.19-1.39,2.12,2.12,0,0,0-.86-2.19"/><path class="cls-4" d="M128.15,88.56l2.29.33a1.9,1.9,0,0,0,1.5-.73,1.87,1.87,0,0,0-.33-2.33"/><polygon class="cls-1" points="111.39 89.62 111.34 79.97 111.75 79.93 111.8 89.57 111.75 89.62 111.39 89.62"/><path class="cls-2" d="M111.75,77.93h-.36a2,2,0,0,0-2,2v9.6a2.05,2.05,0,0,0,2,2.05h.36a2,2,0,0,0,2-2.05V80a2,2,0,0,0-2-2Z"/><path class="cls-5" d="M113.79,80.15l2.06-1L120,73.47l1.21-3.59a1.47,1.47,0,0,1,2.77-.46,4.77,4.77,0,0,1,.73,1.46,4.66,4.66,0,0,1,.2,1.6l-1.44,3.19a1.42,1.42,0,0,0,1.44,2.26l7,1.19a1.81,1.81,0,0,1,.86,2.13,1.85,1.85,0,0,1-1.19,1l-2.94-.34"/><path class="cls-5" d="M113.79,89.39l5.59,1,8.24,1.66a2.46,2.46,0,0,0,2.52-.93,2.55,2.55,0,0,0,.3-2.26"/><path class="cls-1" d="M71.32,20.61a.56.56,0,0,0-.34-.18,4.51,4.51,0,0,0-.53-.08h0c0-.14,0-.27,0-.41a4.07,4.07,0,0,0,0-.5v0h0a4.54,4.54,0,0,0,.51-.09l.18,0a.34.34,0,0,0,.16-.13.33.33,0,0,0,0-.17,1.09,1.09,0,0,0,0-.25c-.05-.16-.27-.85-.33-1a1.36,1.36,0,0,0-.1-.21.34.34,0,0,0-.15-.14l-.11,0a.7.7,0,0,0-.27.08l-.24.11-.24.12h0a4.92,4.92,0,0,0-.54-.73v0h0l.13-.12.23-.24a.59.59,0,0,0,.17-.33v0h0a.37.37,0,0,0-.09-.19,1.17,1.17,0,0,0-.16-.15l-.87-.63a.64.64,0,0,0-.33-.14H68.3a.39.39,0,0,0-.16.1l-.12.17c0,.08-.09.17-.14.26l-.1.21v0h0a4.39,4.39,0,0,0-.87-.27h0c0-.12,0-.25.05-.37A.59.59,0,0,0,67,15s0-.08,0-.12a.38.38,0,0,0-.08-.26.32.32,0,0,0-.17-.1.91.91,0,0,0-.23,0H65.42a.85.85,0,0,0-.23,0,.4.4,0,0,0-.18.1.35.35,0,0,0-.06.14.41.41,0,0,0,0,.12V15c0,.18,0,.35.08.53h0a3.63,3.63,0,0,0-.86.29h0c-.08-.16-.15-.31-.24-.46a1.67,1.67,0,0,0-.12-.16.27.27,0,0,0-.16-.1h-.06a.64.64,0,0,0-.34.14c-.14.09-.72.52-.86.63a.8.8,0,0,0-.17.15.29.29,0,0,0-.08.19h0a.51.51,0,0,0,.17.33,3.32,3.32,0,0,0,.37.38h0v0a4.49,4.49,0,0,0-.53.74h0l-.18-.09-.28-.13a.7.7,0,0,0-.27-.08l-.11,0a.4.4,0,0,0-.15.14,1.36,1.36,0,0,0-.1.21c0,.15-.28.84-.33,1a1.09,1.09,0,0,0,0,.25.33.33,0,0,0,0,.17.52.52,0,0,0,.34.18,4.89,4.89,0,0,0,.53.09h0v0c0,.13,0,.27,0,.41a4.19,4.19,0,0,0,0,.5v0h0l-.51.08a.56.56,0,0,0-.34.18.34.34,0,0,0,0,.18,1.09,1.09,0,0,0,0,.25c0,.16.27.84.33,1a1.36,1.36,0,0,0,.1.21.4.4,0,0,0,.15.14h.11a.68.68,0,0,0,.27-.07q.24-.11.48-.24h0v0a4.92,4.92,0,0,0,.54.73h0l-.36.37a.59.59,0,0,0-.17.33h0a.31.31,0,0,0,.09.19.87.87,0,0,0,.17.16l.86.62a.64.64,0,0,0,.33.14h.07a.42.42,0,0,0,.16-.11A1.11,1.11,0,0,0,64,24.5a4.16,4.16,0,0,0,.24-.47v0h0a4.39,4.39,0,0,0,.87.27h0v0a4.5,4.5,0,0,0-.08.51s0,.08,0,.12a.34.34,0,0,0,.08.25.28.28,0,0,0,.18.11.82.82,0,0,0,.22,0h1.07a.82.82,0,0,0,.22,0,.32.32,0,0,0,.25-.36v-.12c0-.18,0-.35-.08-.53v0h0a4.83,4.83,0,0,0,.86-.29h0v0c.07.15.15.31.23.45a1,1,0,0,0,.12.17.34.34,0,0,0,.16.1h.07a.64.64,0,0,0,.33-.14l.86-.63a1.22,1.22,0,0,0,.17-.15.29.29,0,0,0,.08-.19v0a.35.35,0,0,0,0-.14.62.62,0,0,0-.14-.19,4.4,4.4,0,0,0-.37-.38h0a4.76,4.76,0,0,0,.53-.74v0h0a4,4,0,0,0,.46.23.68.68,0,0,0,.27.07.22.22,0,0,0,.11,0,.31.31,0,0,0,.15-.13,2,2,0,0,0,.1-.21c.05-.16.28-.84.33-1a1.09,1.09,0,0,0,0-.26A.33.33,0,0,0,71.32,20.61Zm-5.32-3a2.34,2.34,0,0,1,.88.18,2.28,2.28,0,1,1-.88-.18Z"/><path class="cls-2" d="M65.94,14.51h-.52a.85.85,0,0,0-.23,0,.4.4,0,0,0-.18.1.35.35,0,0,0-.06.14.41.41,0,0,0,0,.12V15c0,.18,0,.35.08.53h0a3.63,3.63,0,0,0-.86.29h0c-.08-.16-.15-.31-.24-.46a1.67,1.67,0,0,0-.12-.16.27.27,0,0,0-.16-.1h-.07a.64.64,0,0,0-.33.14c-.14.09-.72.52-.86.63a.8.8,0,0,0-.17.15.29.29,0,0,0-.08.19h0a.51.51,0,0,0,.17.33,3.32,3.32,0,0,0,.37.38h0v0a4.49,4.49,0,0,0-.53.74h0l-.18-.09-.28-.13a.7.7,0,0,0-.27-.08h0l-.11,0a.4.4,0,0,0-.15.14,1.36,1.36,0,0,0-.1.21c0,.15-.28.84-.33,1a1.09,1.09,0,0,0,0,.25.33.33,0,0,0,0,.17.52.52,0,0,0,.34.18,4.89,4.89,0,0,0,.53.09h0v0c0,.13,0,.27,0,.41a4.19,4.19,0,0,0,0,.5v0h0l-.51.08a.56.56,0,0,0-.34.18.34.34,0,0,0,0,.18,1.09,1.09,0,0,0,0,.25c0,.16.27.84.33,1a1.36,1.36,0,0,0,.1.21.4.4,0,0,0,.15.14h.11a.68.68,0,0,0,.27-.07q.24-.11.48-.24h0v0a4.92,4.92,0,0,0,.54.73h0l-.36.37a.59.59,0,0,0-.17.33h0a.31.31,0,0,0,.09.19.87.87,0,0,0,.17.16l.86.62a.64.64,0,0,0,.33.14h.07a.42.42,0,0,0,.16-.11A1.11,1.11,0,0,0,64,24.5a4.16,4.16,0,0,0,.24-.47v0h0a4.39,4.39,0,0,0,.87.27h0v0a4.5,4.5,0,0,0-.08.51s0,.08,0,.12a.34.34,0,0,0,.08.25.28.28,0,0,0,.18.11.82.82,0,0,0,.22,0h1.07a.82.82,0,0,0,.22,0,.32.32,0,0,0,.25-.36v-.12c0-.18,0-.35-.08-.53v0h0a4.83,4.83,0,0,0,.86-.29h0v0c.07.15.15.31.23.45a1,1,0,0,0,.12.17.34.34,0,0,0,.16.1h.07a.64.64,0,0,0,.33-.14l.86-.63a1.22,1.22,0,0,0,.17-.15.29.29,0,0,0,.08-.19v0a.35.35,0,0,0,0-.14.62.62,0,0,0-.14-.19,4.4,4.4,0,0,0-.37-.38h0a4.76,4.76,0,0,0,.53-.74v0h0a4,4,0,0,0,.46.23.68.68,0,0,0,.27.07h0a.22.22,0,0,0,.11,0,.31.31,0,0,0,.15-.13,2,2,0,0,0,.1-.21c.05-.16.28-.84.33-1a1.09,1.09,0,0,0,0-.26.33.33,0,0,0,0-.17.56.56,0,0,0-.34-.18,4.51,4.51,0,0,0-.53-.08h0c0-.14,0-.27,0-.41a4.07,4.07,0,0,0,0-.5v0h0a4.54,4.54,0,0,0,.51-.09l.18,0a.34.34,0,0,0,.16-.13.33.33,0,0,0,0-.17,1.09,1.09,0,0,0,0-.25c-.05-.16-.27-.85-.33-1a1.36,1.36,0,0,0-.1-.21.34.34,0,0,0-.15-.14l-.11,0h0a.7.7,0,0,0-.27.08l-.24.11-.24.12h0a4.92,4.92,0,0,0-.54-.73v0h0l.13-.12.23-.24a.59.59,0,0,0,.17-.33v0h0a.37.37,0,0,0-.09-.19,1.17,1.17,0,0,0-.16-.15l-.87-.63a.64.64,0,0,0-.33-.14H68.3a.39.39,0,0,0-.16.1l-.12.17c0,.08-.09.17-.14.26l-.1.21v0h0a4.39,4.39,0,0,0-.87-.27h0c0-.12,0-.25.05-.37A.59.59,0,0,0,67,15s0-.08,0-.12a.38.38,0,0,0-.08-.26.32.32,0,0,0-.17-.1.91.91,0,0,0-.23,0ZM66,22.2a2.29,2.29,0,1,1,0-4.57,2.34,2.34,0,0,1,.88.18A2.28,2.28,0,0,1,66,22.2Z"/><line class="cls-4" x1="62.32" y1="38.35" x2="69.73" y2="38.14"/><line class="cls-4" x1="63.64" y1="39.75" x2="68.41" y2="39.64"/><line class="cls-4" x1="56.81" y1="4.75" x2="59.88" y2="8.08"/><line class="cls-4" x1="65.96" y1="2" x2="66.03" y2="6.53"/><line class="cls-4" x1="77.26" y1="23.97" x2="81.12" y2="26.36"/><line class="cls-4" x1="54.77" y1="23.75" x2="50.63" y2="26.14"/><line class="cls-4" x1="54.63" y1="12.53" x2="50.78" y2="10.14"/><line class="cls-4" x1="74.49" y1="28.68" x2="78.34" y2="31.07"/><line class="cls-4" x1="53.37" y1="18.92" x2="49.51" y2="19.02"/><line class="cls-4" x1="83.38" y1="18.91" x2="78.85" y2="18.84"/><line class="cls-4" x1="57.43" y1="28.68" x2="53.84" y2="31.07"/><line class="cls-4" x1="81.12" y1="10.14" x2="77.26" y2="12.53"/><path class="cls-4" d="M62,37.05l8.11-.27c.34-1.6.56-5.8,1.22-8.07a26.46,26.46,0,0,1,2.82-4.61c4.1-5.7,0-10.83-1.38-12A11.08,11.08,0,0,0,68,9.71a6.19,6.19,0,0,0-2-.17,6.24,6.24,0,0,0-2,.17,11.08,11.08,0,0,0-4.7,2.42c-1.43,1.14-5.48,6.27-1.38,12a26.46,26.46,0,0,1,2.82,4.61c.71,2.41.91,7,1.28,8.34"/><line class="cls-4" x1="64.62" y1="41.28" x2="67.43" y2="41.13"/><line class="cls-4" x1="75.48" y1="4.8" x2="72.3" y2="8.03"/><path class="cls-5" d="M39.21,141.13A62,62,0,0,1,8.38,110.36"/><path class="cls-5" d="M124.81,98.67A61.83,61.83,0,0,1,94.26,139"/><path class="cls-5" d="M93.66,30.35a62,62,0,0,1,28.53,32.13"/><path class="cls-5" d="M3.26,77.93a61.8,61.8,0,0,1,38.86-50.6"/></g></g></svg>