<svg xmlns="http://www.w3.org/2000/svg" viewBox="0 0 129.83 281.3"><defs><style>.cls-1,.cls-2{fill:#e45828;}.cls-1{stroke:#3d3d3d;stroke-linecap:round;stroke-linejoin:round;stroke-width:4px;}.cls-3{fill:#3d3d3d;}</style></defs><title>Asset 25</title><g id="Layer_2" data-name="Layer 2"><g id="Layer_1-2" data-name="Layer 1"><path class="cls-1" d="M31.29,129.27a13.37,13.37,0,0,0-.37-6.39,14,14,0,0,0-6.28-7.64C.52,92.05-4.63,57,10.64,31.67,22.05,12.78,43.53,1.56,65.07,2c31.26.65,58.55,25.76,62.32,56.31,4,32.44-20.51,54.93-22.9,57.06A10.92,10.92,0,0,0,97,129.27"/><rect class="cls-2" x="34.42" y="145.15" width="60.94" height="8.01"/><path class="cls-3" d="M93.36,147.15v4H36.42v-4H93.36m4-4H32.42v12H97.36v-12Z"/><path class="cls-2" d="M46.76,243.26,34.42,220V169.18H46.18v50.18a2,2,0,0,0,.45,1.26,8.92,8.92,0,0,0,6.65,3.2c.23,0,.47,0,.7,0a8.66,8.66,0,0,0,5.9-3.18,2,2,0,0,0,.44-1.27L60,169.18h12.5v48.67a2,2,0,0,0,.17.81,6.71,6.71,0,0,0,12.29,0,2,2,0,0,0,.17-.81V169.18H95.36v51.53L82.67,243.26Z"/><path class="cls-3" d="M93.36,171.18v49L81.5,241.26H48L36.42,219.49V171.18h7.76v48.18a4,4,0,0,0,.9,2.52,11,11,0,0,0,8.2,3.94,8.64,8.64,0,0,0,.88,0,10.65,10.65,0,0,0,7.28-3.92,4.07,4.07,0,0,0,.88-2.53l-.19-26.09L62,171.18h8.49v46.67a3.92,3.92,0,0,0,.34,1.62,8.72,8.72,0,0,0,16,0,3.92,3.92,0,0,0,.34-1.62V171.18h6.27m4-4H83.09v50.67a4.71,4.71,0,0,1-8.63,0V167.18H57.94q.2,26.08.38,52.18a6.71,6.71,0,0,1-4.51,2.44l-.53,0a7,7,0,0,1-5.1-2.46V167.18H32.42v53.3l13.13,24.78H83.84l13.52-24v-54Z"/><path class="cls-2" d="M65.79,278.83c-.63-.79-1.8-2.69-3.54-7.26a2,2,0,0,0-.42-.67A28,28,0,0,1,58,265.82a27.69,27.69,0,0,1-2.71-6.18H75.31a23.26,23.26,0,0,1-2.07,5.92,12.71,12.71,0,0,1-1.52,2.33,28.13,28.13,0,0,0-2,2.77,41.7,41.7,0,0,0-3.54,7.11C66.09,278.12,65.93,278.5,65.79,278.83Z"/><path class="cls-3" d="M72.71,261.64a21.44,21.44,0,0,1-1.25,3,10.29,10.29,0,0,1-1.32,2,31.9,31.9,0,0,0-2.07,2.93,41.67,41.67,0,0,0-2.54,4.69c-.41-.89-.88-2-1.41-3.42a4,4,0,0,0-.85-1.34,25.93,25.93,0,0,1-5.17-7.88H72.71m4.94-4h-25a29.9,29.9,0,0,0,7.69,14.64c2.72,7.15,4.49,9,5.68,9h.14c1.58-.2,1.54-3.65,5.26-9.57,1.74-2.78,2.39-3,3.56-5.25a25.73,25.73,0,0,0,2.63-8.83Z"/></g></g></svg>