<svg xmlns="http://www.w3.org/2000/svg" viewBox="0 0 316.71 309.65"><defs><style>.cls-1{fill:#e45828;}.cls-2{fill:#3d3d3d;}.cls-3{fill:none;stroke:#3d3d3d;stroke-linecap:round;stroke-linejoin:round;stroke-width:4px;}</style></defs><title>Asset 29</title><g id="Layer_2" data-name="Layer 2"><g id="Layer_1-2" data-name="Layer 1"><path class="cls-1" d="M158,163.17c-3.76,0-6.92,0-8.08,0a13.64,13.64,0,0,1-2.94-.32,3.06,3.06,0,0,1-1.66-.91,4,4,0,0,1-.65-2.57,16,16,0,0,1,.1-1.66,74.48,74.48,0,0,1,1.11-7.44l.05-.27a2,2,0,0,0-1.56-2.34l-.27-.06a65.2,65.2,0,0,1-12.68-4l-.25-.11a2,2,0,0,0-2.61,1l-.11.24a75,75,0,0,1-3.59,6.93,12.92,12.92,0,0,1-1.51,2.15,3.06,3.06,0,0,1-1.42.95,1.88,1.88,0,0,1-.53.07c-1.21,0-2.73-.95-3.92-1.77-2.09-1.44-10.9-7.84-12.92-9.39a13.38,13.38,0,0,1-2.2-2,3.1,3.1,0,0,1-.8-1.71v-.13c0-1.16,1.09-2.54,2-3.62,1.59-1.8,3.37-3.6,5.28-5.37l.2-.19a2,2,0,0,0,.12-2.82l-.19-.2A65.55,65.55,0,0,1,101.08,117l-.13-.24a2,2,0,0,0-1.72-1,2,2,0,0,0-1,.26l-.23.13a77.4,77.4,0,0,1-7,3.5,9.22,9.22,0,0,1-3.31.94,2.42,2.42,0,0,1-.88-.15,3.06,3.06,0,0,1-1.38-1.3,14.05,14.05,0,0,1-1.22-2.7c-.84-2.4-4.21-12.76-4.93-15.19A11.9,11.9,0,0,1,78.68,98a2.77,2.77,0,0,1,.37-1.53c.64-1,2.39-1.51,3.85-1.83,2.35-.51,4.85-.93,7.43-1.24l.27,0a2,2,0,0,0,1.75-2.21l0-.27a67,67,0,0,1-.41-7.33c0-2,.09-4,.27-6l0-.26a2,2,0,0,0-1.76-2.17l-.27,0c-2.66-.31-5.26-.74-7.72-1.28-1.46-.32-3.22-.81-3.85-1.82a2.82,2.82,0,0,1-.37-1.53,12,12,0,0,1,.62-3.24c.72-2.43,4.08-12.79,4.93-15.18A13.81,13.81,0,0,1,85,49.39a3.08,3.08,0,0,1,1.38-1.29,2.26,2.26,0,0,1,.88-.16,9.42,9.42,0,0,1,3.32.94c1.34.59,2.71,1.24,4.07,1.94.9.45,1.78.93,2.66,1.42l.24.13a2,2,0,0,0,2.71-.76l.14-.23a65.14,65.14,0,0,1,7.71-10.83l.17-.2a2,2,0,0,0-.15-2.8l-.2-.18a75.6,75.6,0,0,1-5.49-5.57c-1-1.07-2-2.45-2-3.61v-.13a3.1,3.1,0,0,1,.8-1.72,14.09,14.09,0,0,1,2.2-2c2-1.54,10.82-7.94,12.91-9.38,1.2-.83,2.72-1.78,3.92-1.78a2.35,2.35,0,0,1,.54.07,3.06,3.06,0,0,1,1.42,1,13.54,13.54,0,0,1,1.51,2.15c1.21,2.06,2.38,4.31,3.47,6.66l.11.25a2,2,0,0,0,1.82,1.16,1.89,1.89,0,0,0,.83-.18l.24-.11a65.28,65.28,0,0,1,12.6-4.23l.26-.06a2,2,0,0,0,1.52-2.35l-.05-.26c-.53-2.63-.92-5.23-1.17-7.73-.06-.67-.09-1.19-.09-1.66a6.45,6.45,0,0,1,.13-1.41,2.59,2.59,0,0,1,.51-1.16,3.13,3.13,0,0,1,1.66-.91,13.33,13.33,0,0,1,3-.32c1.19,0,4.29,0,7.89,0s6.9,0,8.07,0a13.33,13.33,0,0,1,3,.32,3.13,3.13,0,0,1,1.66.91,4,4,0,0,1,.64,2.57c0,.46,0,1-.09,1.66s-.15,1.4-.24,2.1c-.22,1.73-.52,3.53-.87,5.34l-.06.26A2,2,0,0,0,170,19.56l.27.06a65.29,65.29,0,0,1,12.69,4l.24.11a2,2,0,0,0,.79.16,2,2,0,0,0,1.82-1.17l.11-.24c.48-1.05,1-2.09,1.49-3.09.67-1.32,1.38-2.61,2.11-3.84A12.35,12.35,0,0,1,191,13.37a3,3,0,0,1,1.42-.95,1.81,1.81,0,0,1,.52-.07c1.21,0,2.73,1,3.93,1.77,2.08,1.44,10.89,7.84,12.91,9.39a13,13,0,0,1,2.2,2,3.1,3.1,0,0,1,.81,1.71v.13c0,1.16-1.09,2.54-2,3.61s-2.18,2.37-3.36,3.54c-.63.62-1.27,1.24-1.93,1.84l-.2.19a2,2,0,0,0-.11,2.81l.18.21a65.55,65.55,0,0,1,7.93,10.66l.14.23a2,2,0,0,0,1.72,1,2.05,2.05,0,0,0,1-.26l.23-.13c1.17-.66,2.34-1.28,3.49-1.86s2.35-1.14,3.5-1.64a9.22,9.22,0,0,1,3.31-.94,2.44,2.44,0,0,1,.89.15,3.11,3.11,0,0,1,1.38,1.3,13.6,13.6,0,0,1,1.21,2.7c.85,2.4,4.21,12.75,4.94,15.18a12,12,0,0,1,.61,3.24,2.86,2.86,0,0,1-.36,1.53,3.14,3.14,0,0,1-1.45,1.1,13,13,0,0,1-2.4.72c-2.36.52-4.85.94-7.43,1.25l-.28,0A2,2,0,0,0,222,76l0,.27a64.55,64.55,0,0,1,.42,7.32c0,2-.1,4-.28,6l0,.27A2,2,0,0,0,223.92,92l.27,0a73.3,73.3,0,0,1,7.73,1.28c1.46.32,3.21.81,3.84,1.82a2.73,2.73,0,0,1,.38,1.53,12.31,12.31,0,0,1-.62,3.24c-.73,2.43-4.09,12.79-4.93,15.18a13.53,13.53,0,0,1-1.22,2.7,3.05,3.05,0,0,1-1.38,1.3,2.42,2.42,0,0,1-.88.15,9.41,9.41,0,0,1-3.31-.93c-2.21-1-4.47-2.1-6.74-3.36l-.23-.13a2,2,0,0,0-1-.26,2,2,0,0,0-1.74,1l-.13.23a65.73,65.73,0,0,1-7.71,10.83l-.18.2a2,2,0,0,0,.15,2.79l.2.18a75.63,75.63,0,0,1,5.49,5.58,10.85,10.85,0,0,1,1.72,2.36A3,3,0,0,1,214,139v.13a3.12,3.12,0,0,1-.81,1.72,13.77,13.77,0,0,1-2.19,2c-2,1.54-10.84,7.94-12.92,9.38-1.2.83-2.72,1.77-3.91,1.77a2.29,2.29,0,0,1-.54-.06,3,3,0,0,1-1.42-.95,12.35,12.35,0,0,1-1.51-2.15c-1.22-2.07-2.38-4.31-3.47-6.67l-.12-.25a2,2,0,0,0-1.81-1.16,2,2,0,0,0-.83.18l-.25.12a64.82,64.82,0,0,1-12.6,4.23l-.26.06a2,2,0,0,0-1.52,2.35l.05.26a73.54,73.54,0,0,1,1.17,7.73,16,16,0,0,1,.1,1.66,4,4,0,0,1-.65,2.57,3.06,3.06,0,0,1-1.66.91,13.7,13.7,0,0,1-2.94.32C164.71,163.15,161.69,163.17,158,163.17Zm-.81-116A36.44,36.44,0,1,0,171.33,50,36.49,36.49,0,0,0,157.19,47.13Z" transform="translate(0 -2)"/><path class="cls-2" d="M156.38,6c3.67,0,6.9,0,8,0a12,12,0,0,1,2.49.25c.5.13.63.25.63.26a2.71,2.71,0,0,1,.18,1.29c0,.4,0,.86-.09,1.47s-.14,1.36-.22,2c-.22,1.68-.51,3.43-.86,5.2l-.05.27a4,4,0,0,0,3.13,4.69l.26.06a62.88,62.88,0,0,1,12.3,3.85l.24.11a4,4,0,0,0,5.22-2l.11-.24c.47-1,1-2,1.45-3,.66-1.28,1.35-2.54,2.05-3.74a10.71,10.71,0,0,1,1.25-1.8c.3-.32.45-.38.5-.38.27,0,1,.18,2.78,1.42,2.06,1.43,10.82,7.79,12.83,9.33a12,12,0,0,1,1.87,1.67,1.47,1.47,0,0,1,.35.58c0,.1-.11.67-1.54,2.28-1,1.15-2.11,2.3-3.26,3.43-.61.61-1.24,1.21-1.88,1.8l-.2.19a4,4,0,0,0-.24,5.63l.19.21a63.3,63.3,0,0,1,7.68,10.34l.14.23a4,4,0,0,0,3.44,1.95,4,4,0,0,0,2-.52l.23-.13c1.14-.64,2.28-1.25,3.4-1.81s2.29-1.11,3.42-1.6a8.35,8.35,0,0,1,2.51-.77h.14a1.6,1.6,0,0,1,.43.52,11.56,11.56,0,0,1,1,2.29c.83,2.37,4.18,12.67,4.9,15.09a10.54,10.54,0,0,1,.53,2.66,1,1,0,0,1-.06.46,1.59,1.59,0,0,1-.56.34,10.53,10.53,0,0,1-2,.6,73.1,73.1,0,0,1-7.23,1.21l-.27,0a4,4,0,0,0-3.5,4.41l0,.27a65.41,65.41,0,0,1,.4,7.1c0,1.9-.09,3.85-.27,5.79l0,.27A4,4,0,0,0,223.7,94l.27,0a71.92,71.92,0,0,1,7.52,1.24c2.11.46,2.53.87,2.59,1a1.17,1.17,0,0,1,.06.45,10.73,10.73,0,0,1-.54,2.67c-.72,2.41-4.06,12.7-4.9,15.09a12.73,12.73,0,0,1-1,2.29,1.6,1.6,0,0,1-.43.51h-.16a8.47,8.47,0,0,1-2.5-.77,71.46,71.46,0,0,1-6.56-3.27l-.24-.13a4.06,4.06,0,0,0-2-.51,4,4,0,0,0-3.48,2l-.13.23a63.79,63.79,0,0,1-7.48,10.5l-.17.2a4,4,0,0,0,.3,5.59l.2.18a75.78,75.78,0,0,1,5.35,5.43,9.76,9.76,0,0,1,1.41,1.9,1.15,1.15,0,0,1,.13.39,1.61,1.61,0,0,1-.35.57,12,12,0,0,1-1.87,1.67c-2,1.53-10.76,7.89-12.84,9.33-1.78,1.23-2.5,1.41-2.81,1.41h0a1.32,1.32,0,0,1-.46-.38,10.24,10.24,0,0,1-1.25-1.79c-1.18-2-2.32-4.2-3.38-6.5l-.11-.25a4,4,0,0,0-3.64-2.32,4.06,4.06,0,0,0-1.65.36l-.25.12a62.84,62.84,0,0,1-12.21,4.1l-.26.06a4,4,0,0,0-3,4.69l0,.27a75,75,0,0,1,1.14,7.52c0,.38.09,1,.09,1.47a2.58,2.58,0,0,1-.19,1.29,1.51,1.51,0,0,1-.62.26,12,12,0,0,1-2.49.25c-1.16,0-4.24,0-7.84,0s-6.9,0-8,0a12,12,0,0,1-2.49-.25,1.51,1.51,0,0,1-.62-.26s-.19-.27-.19-1.29c0-.4,0-.86.09-1.47.22-2.32.59-4.76,1.08-7.24l0-.27a4,4,0,0,0-3.12-4.7l-.27,0a62.79,62.79,0,0,1-12.29-3.85l-.25-.11a4,4,0,0,0-5.21,2l-.12.25a72.39,72.39,0,0,1-3.5,6.75,11.27,11.27,0,0,1-1.24,1.8c-.31.32-.46.38-.5.38-.27,0-1-.19-2.78-1.42-2.07-1.43-10.83-7.79-12.83-9.33a12,12,0,0,1-1.87-1.67,1.39,1.39,0,0,1-.36-.58c0-.1.11-.67,1.55-2.28s3.28-3.51,5.14-5.24l.2-.18a4,4,0,0,0,.23-5.64l-.18-.2a62.78,62.78,0,0,1-7.69-10.34l-.14-.23a4,4,0,0,0-5.4-1.43l-.23.13c-2.28,1.28-4.57,2.43-6.81,3.41a8.54,8.54,0,0,1-2.51.77h-.14s-.17-.09-.44-.52a12.43,12.43,0,0,1-1-2.29c-.84-2.38-4.18-12.67-4.9-15.09A10.57,10.57,0,0,1,80.68,98a1.2,1.2,0,0,1,.06-.46c.06-.08.47-.48,2.59-.94a70.74,70.74,0,0,1,7.23-1.21l.27,0A4,4,0,0,0,94.34,91l0-.27a63.28,63.28,0,0,1-.4-7.11c0-1.89.09-3.83.27-5.79l0-.26a4,4,0,0,0-3.52-4.34l-.27,0a74.83,74.83,0,0,1-7.53-1.25c-2.11-.46-2.52-.86-2.59-.94a1.37,1.37,0,0,1-.05-.46,10.71,10.71,0,0,1,.53-2.66c.72-2.41,4.06-12.71,4.9-15.09a11.82,11.82,0,0,1,1-2.29,1.45,1.45,0,0,1,.43-.51.38.38,0,0,1,.15,0,8.24,8.24,0,0,1,2.51.78c1.3.56,2.63,1.2,4,1.88.86.44,1.73.9,2.59,1.38l.24.14a4.06,4.06,0,0,0,2,.51,4,4,0,0,0,3.48-2l.14-.23a63.73,63.73,0,0,1,7.47-10.5l.18-.2a4,4,0,0,0-.31-5.59l-.19-.18a73.9,73.9,0,0,1-5.36-5.43c-1.43-1.61-1.53-2.18-1.54-2.29a1.49,1.49,0,0,1,.36-.57,11.55,11.55,0,0,1,1.87-1.67c2-1.53,10.75-7.89,12.83-9.33,1.78-1.23,2.5-1.41,2.81-1.41h0a1.44,1.44,0,0,1,.46.38A10.75,10.75,0,0,1,122,17.37c1.18,2,2.32,4.2,3.38,6.49l.12.25a4,4,0,0,0,3.63,2.32,3.87,3.87,0,0,0,1.65-.36L131,26a62.62,62.62,0,0,1,12.21-4.1l.26-.06a4,4,0,0,0,3-4.69l0-.27a75,75,0,0,1-1.14-7.52c0-.61-.08-1.07-.08-1.47a5.34,5.34,0,0,1,.08-1,1.09,1.09,0,0,1,.1-.3s.13-.13.63-.26a12,12,0,0,1,2.49-.25c1.16,0,4.17,0,7.84,0m.81,116h0a38.45,38.45,0,0,0,14.92-73.89,38.1,38.1,0,0,0-14.92-3,38.45,38.45,0,1,0,0,76.9M156.38,2c-3.32,0-6.63,0-7.94,0a15.27,15.27,0,0,0-3.4.38A5,5,0,0,0,142.34,4a4.54,4.54,0,0,0-.93,2,9.09,9.09,0,0,0-.17,1.83c0,.62,0,1.24.1,1.85a78.18,78.18,0,0,0,1.2,7.93l.05.27-.26.05a66.5,66.5,0,0,0-13,4.37l-.25.11-.12-.24c-1.08-2.34-2.26-4.63-3.56-6.85a14.36,14.36,0,0,0-1.77-2.49,5,5,0,0,0-2.39-1.53,4,4,0,0,0-1-.13h0c-1.73,0-3.5,1.06-5,2.13-2.06,1.42-10.88,7.82-13,9.44a15,15,0,0,0-2.52,2.31,5,5,0,0,0-1.26,2.86c0,.08,0,.17,0,.25,0,1.81,1.26,3.49,2.55,5a80.1,80.1,0,0,0,5.64,5.72l.2.18-.18.2a67.58,67.58,0,0,0-7.94,11.16l-.14.24-.23-.14c-.9-.5-1.81-1-2.73-1.45-1.37-.71-2.77-1.37-4.18-2a10.79,10.79,0,0,0-4.11-1.11h0a4.46,4.46,0,0,0-1.61.3,4.93,4.93,0,0,0-2.33,2.08,15.13,15.13,0,0,0-1.42,3.11c-.83,2.36-4.2,12.72-5,15.28a13.81,13.81,0,0,0-.7,3.81,4.64,4.64,0,0,0,.68,2.59c1,1.62,3.11,2.28,5.11,2.71A78.32,78.32,0,0,0,90,77.14l.27,0,0,.26c-.18,2-.28,4.08-.28,6.15a69.6,69.6,0,0,0,.42,7.55l0,.27-.27,0c-2.56.31-5.1.72-7.62,1.28-2,.44-4.09,1.09-5.11,2.71a4.78,4.78,0,0,0-.68,2.6,13.68,13.68,0,0,0,.7,3.8c.71,2.4,4.08,12.76,5,15.28a14.9,14.9,0,0,0,1.41,3.12,5,5,0,0,0,2.33,2.07,4.27,4.27,0,0,0,1.62.3h0a10.74,10.74,0,0,0,4.11-1.11A77.35,77.35,0,0,0,99,117.89l.24-.13.14.23a67.25,67.25,0,0,0,8.17,11l.18.2-.2.19c-1.89,1.75-3.71,3.59-5.42,5.51-1.29,1.46-2.55,3.14-2.55,5,0,.08,0,.17,0,.25a5,5,0,0,0,1.26,2.86,15,15,0,0,0,2.52,2.31c2,1.52,10.8,7.93,13,9.44,1.56,1.08,3.32,2.13,5,2.13h0a4,4,0,0,0,1-.13,5.06,5.06,0,0,0,2.39-1.52,14.44,14.44,0,0,0,1.77-2.5,80,80,0,0,0,3.69-7.12l.11-.24.25.1a66.44,66.44,0,0,0,13.07,4.1l.27.05-.05.27c-.5,2.53-.89,5.07-1.14,7.63-.06.61-.11,1.24-.11,1.86a5.84,5.84,0,0,0,1.11,3.84,5,5,0,0,0,2.69,1.58,15.41,15.41,0,0,0,3.4.38c1.27,0,4.71,0,8.13,0s6.62,0,7.94,0a15.25,15.25,0,0,0,3.39-.38,5,5,0,0,0,2.7-1.58,5.84,5.84,0,0,0,1.11-3.84c0-.62,0-1.25-.11-1.86a78.38,78.38,0,0,0-1.19-7.92l-.06-.27.26-.06a66.57,66.57,0,0,0,13-4.36l.25-.12.11.25a75.2,75.2,0,0,0,3.57,6.84,13.57,13.57,0,0,0,1.77,2.5,5,5,0,0,0,2.38,1.53,4.44,4.44,0,0,0,1,.12h0c1.72,0,3.49-1.05,5-2.12,2.05-1.42,10.87-7.82,13-9.44a15.93,15.93,0,0,0,2.53-2.31,5,5,0,0,0,1.25-2.86,2.18,2.18,0,0,0,0-.25,4.85,4.85,0,0,0-.53-2.12,13.09,13.09,0,0,0-2-2.83,78,78,0,0,0-5.64-5.72l-.2-.18.18-.2a67.64,67.64,0,0,0,7.95-11.16l.13-.24.24.13c2.25,1.26,4.55,2.42,6.91,3.45a10.72,10.72,0,0,0,4.1,1.1h0a4.26,4.26,0,0,0,1.62-.29,5,5,0,0,0,2.33-2.08,14.59,14.59,0,0,0,1.41-3.11c.83-2.36,4.2-12.72,5-15.28a14.19,14.19,0,0,0,.7-3.81,4.72,4.72,0,0,0-.68-2.59c-1-1.62-3.12-2.28-5.11-2.71A78.52,78.52,0,0,0,224.42,90l-.26,0,0-.27q.28-3,.29-6.15A67.11,67.11,0,0,0,224,76l0-.27.27,0c2.56-.3,5.11-.72,7.62-1.27a15,15,0,0,0,2.79-.85A5,5,0,0,0,237,71.75a4.69,4.69,0,0,0,.68-2.6,13.81,13.81,0,0,0-.7-3.81c-.71-2.39-4.07-12.76-5-15.27A16,16,0,0,0,230.62,47a5.11,5.11,0,0,0-2.34-2.08,4.45,4.45,0,0,0-1.61-.29h0a10.79,10.79,0,0,0-4.11,1.11c-1.21.52-2.41,1.09-3.6,1.68s-2.39,1.24-3.57,1.91l-.23.13-.14-.23a66.83,66.83,0,0,0-8.17-11l-.19-.21.2-.18q1-.93,2-1.89,1.77-1.75,3.44-3.63c1.3-1.46,2.56-3.13,2.55-4.94a2,2,0,0,0,0-.25h0a5,5,0,0,0-1.25-2.86A15.47,15.47,0,0,0,211,21.92c-2-1.52-10.8-7.93-13-9.44-1.55-1.08-3.32-2.13-5-2.13h0a4,4,0,0,0-1,.13A5,5,0,0,0,189.57,12a14.49,14.49,0,0,0-1.78,2.5q-1.14,2-2.16,3.95c-.53,1.05-1,2.1-1.53,3.17l-.11.24-.24-.11a67.19,67.19,0,0,0-13.08-4.09l-.27-.06.06-.26c.36-1.82.66-3.64.89-5.48.09-.72.18-1.43.25-2.16s.1-1.23.1-1.85A5.89,5.89,0,0,0,170.6,4a5,5,0,0,0-2.7-1.58,15.34,15.34,0,0,0-3.4-.38c-1.27,0-4.7,0-8.12,0Zm.81,116a34.46,34.46,0,1,1,34.45-34.45A34.29,34.29,0,0,1,157.19,118Z" transform="translate(0 -2)"/><path class="cls-2" d="M56.07,222.32v85.33H4V222.32H56.07m4-4H0v93.33H60.07V218.32Z" transform="translate(0 -2)"/><path class="cls-3" d="M60.07,298.77l11.26-3.21L191.22,302,310,225.83c.35-.47,7.66-10.41,3.33-21.09-3.65-9-14-14.59-24.79-12.7L218.83,225.3" transform="translate(0 -2)"/><path class="cls-3" d="M137.66,238.17h53.56c.55-.24,8.69-4,10.09-12.93a17.15,17.15,0,0,0-7.15-16.57l-64.9-13.41a34.57,34.57,0,0,0-20.2-.77,35.07,35.07,0,0,0-20,14.68l-.06.06-29,19.28" transform="translate(0 -2)"/><polyline class="cls-3" points="138.33 83.6 151.34 96.95 171.71 62.57"/></g></g></svg>