<svg xmlns="http://www.w3.org/2000/svg" viewBox="0 0 320.59 261.16"><defs><style>.cls-1,.cls-3{fill:none;}.cls-1,.cls-2{stroke:#3d3d3d;}.cls-1,.cls-2,.cls-3{stroke-linecap:round;stroke-linejoin:round;stroke-width:4px;}.cls-2{fill:#e45828;}.cls-3{stroke:#fff;}</style></defs><title>Asset 32</title><g id="Layer_2" data-name="Layer 2"><g id="Layer_1-2" data-name="Layer 1"><path class="cls-1" d="M156.89,226.17c-1.22.37-2.44.71-3.67,1a2.11,2.11,0,0,0-1.88,2.51c.08,5.54-.08,11.09.08,16.63.08,3-.74,5.41-3.47,6.94H105.83c-2.74-1.53-3.56-3.89-3.47-6.94.15-5.55,0-11.1.08-16.65a2.12,2.12,0,0,0-1.9-2.5,94.27,94.27,0,0,1-25-10.44c-1.37-.83-2.1-.47-3.08.53-4.29,4.37-8.63,8.68-13,13-3.18,3.16-5.61,3.16-8.8,0q-12.91-12.88-25.8-25.8c-3.18-3.19-3.17-5.59,0-8.8,4.72-4.74,9.46-9.45,13.89-13.87-3-6.82-6-13.32-8.82-19.9a35.55,35.55,0,0,1-2.12-7c-.42-2.18-1.53-2.6-3.54-2.55-5.38.13-10.77.06-16.15,0-4.45,0-6.2-1.78-6.2-6.29q0-18.24,0-36.49c0-4.45,1.78-6.18,6.29-6.19,5.55,0,11.1-.05,16.65,0,1.5,0,2.3-.26,2.72-1.92A95.66,95.66,0,0,1,38.13,76.29c.82-1.36.47-2.11-.54-3.1-4.26-4.17-8.45-8.4-12.66-12.63-3.49-3.5-3.47-5.77.08-9.33L50.28,25.94c3.51-3.5,5.79-3.47,9.35.08,4.22,4.21,8.39,8.46,12.67,12.6a2.74,2.74,0,0,0,2.36.67A106.45,106.45,0,0,1,102.4,28V11.56c0-8.37.7-9.07,9-9.07h33.3c5,0,6.62,1.63,6.62,6.6,0,6.2,0,12.4,0,18.83a108.46,108.46,0,0,1,14.85,4.9"/><path class="cls-1" d="M67.68,80.62A76.25,76.25,0,0,1,149,54.87"/><path class="cls-1" d="M51.78,118.75a75.93,75.93,0,0,1,5.27-20.1"/><path class="cls-1" d="M155.27,198.74A76.18,76.18,0,0,1,52.18,139.91"/><path class="cls-1" d="M150.66,182.86A59.7,59.7,0,1,1,127.37,68.19a60.75,60.75,0,0,1,8.37.58"/><path class="cls-2" d="M229.74,201v-2.43c-1-12.83,8.8-21.39,12.92-24.4a37.79,37.79,0,0,0,3.91-3.22c25.74-25,22.82-47.57,22.82-47.57s4.21-34-27.47-58-64.25-12-82.72,0S131.32,104.57,132.3,125s20.95,46.35,31.43,52.4,9.94,23.6,9.94,23.6"/><polyline class="cls-2" points="187.18 201.58 173.67 201.58 173.67 218.44 229.74 218.44 229.74 201.58 203.06 201.58"/><path class="cls-1" d="M200.68,235.83H174.1s0,.29-.07.81a21.29,21.29,0,0,0,21.34,22.52h12.69a21.19,21.19,0,0,0,20.82-16.48,42.62,42.62,0,0,0,.86-6.85H214.29"/><path class="cls-3" d="M206.19,72.57s25,4.05,35.73,22.52"/><path class="cls-3" d="M247.78,112.24s1.08,9.29,0,14.7"/><line class="cls-1" x1="201.33" y1="2" x2="201.33" y2="30.68"/><line class="cls-1" x1="259.98" y1="18.21" x2="245.8" y2="43.15"/><line class="cls-1" x1="302.36" y1="60.51" x2="277.97" y2="75.61"/><line class="cls-1" x1="318.59" y1="119.28" x2="289.91" y2="119.66"/><line class="cls-1" x1="302.96" y1="178.12" x2="278.38" y2="163.35"/></g></g></svg>