<svg xmlns="http://www.w3.org/2000/svg" viewBox="0 0 204.72 273.94"><defs><style>.cls-1{fill:#e45828;}.cls-1,.cls-2,.cls-3,.cls-4{stroke:#3d3d3d;stroke-linecap:round;stroke-linejoin:round;}.cls-1,.cls-2,.cls-4{stroke-width:4px;}.cls-2,.cls-3{fill:none;}.cls-3{stroke-width:10px;}.cls-4{fill:#fff;}</style></defs><title>Asset 31</title><g id="Layer_2" data-name="Layer 2"><g id="Layer_1-2" data-name="Layer 1"><ellipse class="cls-1" cx="102.36" cy="86.82" rx="47.91" ry="60.02"/><path class="cls-2" d="M202.71,212.28c-.83,33.72-56.17,59.66-100.36,59.66C46.93,271.94,2,245.23,2,212.28c0-32,47.36-65.1,68.19-56.53,9.84,4,14,17.54,29.48,19.57,3.7.49,10.14,1.34,15.59-2.28,6.42-4.26,6.39-11.36,14.7-16.24a29.34,29.34,0,0,1,7.35-2.77C152.48,150.47,203.52,179.47,202.71,212.28Z"/><rect class="cls-3" x="24.37" y="75.71" width="12.93" height="26.62"/><rect class="cls-3" x="170.76" y="75.71" width="12.93" height="26.62"/><path class="cls-2" d="M30.84,73.8C32.07,34.36,64.28,2.73,102.7,2c39.84-.74,74,32,74.65,72.94"/><path class="cls-2" d="M126.65,121.33c1.95.89,18.21,8,34.22-.76a37.79,37.79,0,0,0,16.35-18.25"/><rect class="cls-4" x="94.71" y="113.6" width="31.94" height="15.34" rx="7.67"/></g></g></svg>