<svg xmlns="http://www.w3.org/2000/svg" viewBox="0 0 244.48 231.89"><defs><style>.cls-1{fill:#3d3d3d;}.cls-2{fill:#e45828;}</style></defs><title>Asset 22</title><g id="Layer_2" data-name="Layer 2"><g id="Layer_1-2" data-name="Layer 1"><path class="cls-1" d="M176.39,148c3.34-.72,24.7-5.69,36.48-26.7,1.28-2.29,10.91-20.09,5.07-40.48-6.33-22.09-27.24-34.69-30.31-36.31a24.38,24.38,0,0,1-4.14-2.7,26.22,26.22,0,0,1-7.1-9C173.27,26.64,149.14,15.9,121.68,16c-45.44.11-82,29.78-92.72,39C22.44,61.9,3,84.3.31,118.59c-2.76,35.23,13.39,67.33,36.25,86.8C80.71,243,152.73,235.9,164.62,213.08c1.06-2,7-14.4,2.32-25.36-3.23-7.59-9.78-10.37-11.49-20.26-.43-2.5-1.19-6.94,1-11.11C159.55,150.49,167.33,147.35,176.39,148Z"/><path class="cls-2" d="M59.5,99.36A16.46,16.46,0,1,1,76,82.9,16.47,16.47,0,0,1,59.5,99.36Z"/><path class="cls-1" d="M59.5,68.44A14.46,14.46,0,1,1,45,82.9,14.48,14.48,0,0,1,59.5,68.44m0-4A18.46,18.46,0,1,0,78,82.9,18.46,18.46,0,0,0,59.5,64.44Z"/><path class="cls-2" d="M41.94,155.43A16.46,16.46,0,1,1,58.4,139,16.47,16.47,0,0,1,41.94,155.43Z"/><path class="cls-1" d="M41.94,124.51A14.46,14.46,0,1,1,27.48,139a14.47,14.47,0,0,1,14.46-14.46m0-4A18.46,18.46,0,1,0,60.4,139a18.45,18.45,0,0,0-18.46-18.46Z"/><path class="cls-2" d="M119.62,76a16.47,16.47,0,1,1,16.47-16.47A16.49,16.49,0,0,1,119.62,76Z"/><path class="cls-1" d="M119.63,45a14.47,14.47,0,1,1-14.47,14.46A14.48,14.48,0,0,1,119.63,45m0-4a18.47,18.47,0,1,0,18.46,18.46A18.47,18.47,0,0,0,119.63,41Z"/><path class="cls-2" d="M88.14,140.54c.41-1.22,4.14-11.47,13.79-14a17.23,17.23,0,0,1,4.42-.57,20.56,20.56,0,0,1,6.27,1c.12,0,12.23,3.9,14.54,13.92,2.08,9.05-4.09,19-14.34,23.2l-.24.12a100.91,100.91,0,0,1-37.89,12.42Z"/><path class="cls-1" d="M106.35,127.92h0a18.75,18.75,0,0,1,5.68,1c.11,0,11.13,3.56,13.18,12.46,1.83,8-3.94,17.15-13.15,20.9a4,4,0,0,0-.46.23,99,99,0,0,1-33.87,11.73L90,141.24l0-.11c.35-1.06,3.74-10.4,12.38-12.71a15.47,15.47,0,0,1,3.91-.5m0-4a19.1,19.1,0,0,0-4.94.64c-10.74,2.87-14.73,14.06-15.14,15.28l-14.58,39.1a102.42,102.42,0,0,0,19.71-3.67,103.23,103.23,0,0,0,22.17-9.33c11.54-4.7,17.73-16,15.54-25.51-2.54-11-15.23-15.18-15.9-15.38a22.6,22.6,0,0,0-6.86-1.13Z"/><path class="cls-2" d="M123.73,113.68a145.52,145.52,0,0,1,8.19-15.15C144,79.05,157.49,67.72,170.53,56.78l2.93-2.47c17.29-14.58,34.89-30.69,52.3-47.89a2.2,2.2,0,0,0,.2-.23A10.28,10.28,0,0,1,234.25,2a8.37,8.37,0,0,1,6.06,2.36,8.35,8.35,0,0,1,2.16,6,10.35,10.35,0,0,1-3.28,7.33,1.5,1.5,0,0,0-.2.23c-14.24,18.42-28.83,36.76-43.37,54.5-11.83,14.44-20.55,24.79-33.42,36.61a277.91,277.91,0,0,1-23.88,19.61Z"/><path class="cls-1" d="M234.25,4a6.39,6.39,0,0,1,4.62,1.75,6.4,6.4,0,0,1,1.61,4.6,8.42,8.42,0,0,1-2.66,5.93,4.47,4.47,0,0,0-.42.45c-14.23,18.42-28.81,36.74-43.33,54.46-11.78,14.38-20.45,24.67-33.22,36.41A275,275,0,0,1,138.53,126l-12.4-12.76a144.12,144.12,0,0,1,7.49-13.7c11.91-19.21,25.28-30.43,38.2-41.27,1-.82,2-1.64,2.93-2.47,17.33-14.61,35-30.76,52.42-48a4.19,4.19,0,0,0,.39-.45A8.29,8.29,0,0,1,234.25,4m0-4a12.33,12.33,0,0,0-9.89,5c-21.61,21.34-39.51,37.1-52.19,47.8-14.06,11.85-28.79,23.46-41.95,44.68a146.74,146.74,0,0,0-8.88,16.62l16.75,17.23a279.46,279.46,0,0,0,25.47-20.78c12.65-11.63,21.14-21.6,33.61-36.81,12-14.64,26.73-33,43.4-54.55,5-4.74,5-12.27,1.18-16.21a10.37,10.37,0,0,0-7.5-3Z"/></g></g></svg>