<svg xmlns="http://www.w3.org/2000/svg" viewBox="0 0 306.06 302.63"><defs><style>.cls-1{fill:#e45828;}.cls-2{fill:#3d3d3d;}.cls-3{fill:none;stroke:#3d3d3d;stroke-linecap:round;stroke-linejoin:round;stroke-width:4px;}</style></defs><title>Asset 35</title><g id="Layer_2" data-name="Layer 2"><g id="Layer_1-2" data-name="Layer 1"><circle class="cls-1" cx="178.09" cy="45.09" r="43.09"/><path class="cls-2" d="M178.09,4A41.09,41.09,0,1,1,137,45.09,41.13,41.13,0,0,1,178.09,4m0-4a45.09,45.09,0,1,0,45.09,45.09A45.09,45.09,0,0,0,178.09,0Z"/><path class="cls-1" d="M108.79,171.6V137.4c.95-4,4.86-16.48,17.6-23.73A36.22,36.22,0,0,1,144.53,109a37.91,37.91,0,0,1,7.06.65l25,28.87a2,2,0,0,0,1.46.69h.05a2,2,0,0,0,1.45-.62l27.63-28.88a38.52,38.52,0,0,1,5.26-.36,37.68,37.68,0,0,1,15.78,3.4c12.23,5.61,17.7,16.11,19.58,20.7l1.61,38.42Z"/><path class="cls-2" d="M144.54,111a35.81,35.81,0,0,1,6,.49l11.81,13.65,12.72,14.69a4,4,0,0,0,2.92,1.38h.1a4,4,0,0,0,2.89-1.23l27.15-28.38a38.47,38.47,0,0,1,4.3-.25,35.71,35.71,0,0,1,14.95,3.22,37.33,37.33,0,0,1,18.43,19.32l.82,19.72.68,16.25-68.17-.11-68.35-.11v-32c1-4,4.77-15.51,16.59-22.23A34.33,34.33,0,0,1,144.54,111m0-4a38.52,38.52,0,0,0-19.13,5c-14.47,8.22-18.07,22.82-18.62,25.24V173.6l144.69.23L249.77,133c-1.17-2.95-6.6-15.61-20.72-22.08a39.83,39.83,0,0,0-16.62-3.59,40.5,40.5,0,0,0-6.22.48l-28.12,29.38-25.44-29.38a38.64,38.64,0,0,0-8.11-.83Z"/><path class="cls-2" d="M54,216.46v82.17H4V216.46H54m4-4H0v90.17H58V212.46Z"/><path class="cls-3" d="M58,290.19l10.88-3.11,115.83,6.22,114.77-73.58c.35-.45,7.41-10.06,3.23-20.38-3.53-8.72-13.51-14.1-24-12.27L211.43,219.2"/><path class="cls-3" d="M133,231.64h51.75c.54-.24,8.4-3.84,9.75-12.5a16.53,16.53,0,0,0-6.91-16l-62.7-13a33.47,33.47,0,0,0-19.52-.75,33.94,33.94,0,0,0-19.28,14.19l0,.06L58,222.31"/><path class="cls-1" d="M29,286.25a5.53,5.53,0,1,1,5.53-5.53A5.54,5.54,0,0,1,29,286.25Z"/><path class="cls-2" d="M29,277.19a3.53,3.53,0,1,1-3.53,3.53A3.53,3.53,0,0,1,29,277.19m0-4a7.53,7.53,0,1,0,7.53,7.53A7.53,7.53,0,0,0,29,273.19Z"/></g></g></svg>