<svg xmlns="http://www.w3.org/2000/svg" viewBox="0 0 257.33 227.12"><defs><style>.cls-1{fill:none;}.cls-1,.cls-3,.cls-4{stroke:#3d3d3d;stroke-linecap:round;stroke-linejoin:round;stroke-width:4px;}.cls-2{fill:#3d3d3d;}.cls-3,.cls-5{fill:#e45828;}.cls-4{fill:#fff;}</style></defs><title>Asset 34</title><g id="Layer_2" data-name="Layer 2"><g id="Layer_1-2" data-name="Layer 1"><line class="cls-1" x1="64.45" y1="156.41" x2="92.61" y2="156.41"/><line class="cls-1" x1="41.04" y1="156.41" x2="55.12" y2="156.41"/><line class="cls-1" x1="64.45" y1="126.58" x2="92.61" y2="126.58"/><line class="cls-1" x1="41.04" y1="126.58" x2="55.12" y2="126.58"/><line class="cls-1" x1="41.04" y1="173.75" x2="55.12" y2="173.75"/><line class="cls-1" x1="62.62" y1="173.75" x2="103.19" y2="173.75"/><line class="cls-1" x1="41.04" y1="105.99" x2="55.12" y2="105.99"/><line class="cls-1" x1="62.62" y1="105.99" x2="103.19" y2="105.99"/><line class="cls-1" x1="41.04" y1="78.76" x2="55.12" y2="78.76"/><line class="cls-1" x1="62.62" y1="78.76" x2="120.63" y2="78.76"/><line class="cls-1" x1="41.04" y1="58.19" x2="55.12" y2="58.19"/><line class="cls-1" x1="62.62" y1="58.19" x2="120.63" y2="58.19"/><path class="cls-2" d="M87.92,4c6.52,0,12.4,4.88,14.3,11.87a4,4,0,0,0,3.85,3,4.46,4.46,0,0,0,.88-.09,13.74,13.74,0,0,1,3-.34c5.14,0,8.59,3,9.23,5.84A7.92,7.92,0,0,1,118,29.62H60.83c-1.88-1.76-2.95-4-2.72-5.75.34-2.66,3.65-5.51,8-5.51a11.06,11.06,0,0,1,2.71.34,3.7,3.7,0,0,0,1,.12,4,4,0,0,0,3.86-3C75.52,9.11,81,4.35,87.23,4l.69,0m0-4L87,0c-8,.42-14.92,6.38-17.18,14.8a15.09,15.09,0,0,0-3.69-.46c-6.45,0-11.41,4.35-12,9C53.68,27,55.91,31,59.38,33.62h60.74c.59-.75,4-5.31,2.93-10.26s-6.41-9-13.13-9a17.79,17.79,0,0,0-3.84.43C103.68,6,96.17,0,87.92,0Z"/><path class="cls-1" d="M172.6,134.16v71a20,20,0,0,1-20,20H22a20,20,0,0,1-20-20V36.81a20,20,0,0,1,20-20H152.6a20,20,0,0,1,20,20v78.55"/><path class="cls-1" d="M151,182.78v17.76H21.26v-164l114.19,2"/><polyline class="cls-1" points="151.04 110.66 151.04 38.47 135.45 38.47"/><path class="cls-3" d="M217.64,128.39a58.36,58.36,0,1,1-8.88-10.08"/><path class="cls-3" d="M190.55,155.51a22,22,0,0,1,.88,6.16A21.73,21.73,0,1,1,183,144.5"/><path class="cls-4" d="M205,141.2a40.79,40.79,0,1,1-9.78-11.35"/><path class="cls-5" d="M169.69,180.14a18.47,18.47,0,1,1,18.47-18.47A18.48,18.48,0,0,1,169.69,180.14Z"/><path class="cls-2" d="M169.69,145.2a16.47,16.47,0,1,1-16.47,16.47,16.49,16.49,0,0,1,16.47-16.47m0-4a20.47,20.47,0,1,0,20.47,20.47,20.47,20.47,0,0,0-20.47-20.47Z"/><polyline class="cls-1" points="173.78 161.67 216.02 116.93 212.58 97.3 234.05 74.56 237.35 93.41 255.33 97.3 235.33 119.65 216.53 116.93"/></g></g></svg>