<svg xmlns="http://www.w3.org/2000/svg" viewBox="0 0 224.11 291.02"><defs><style>.cls-1{fill:#e45828;}.cls-2{fill:#3d3d3d;}.cls-3{fill:#fff;}.cls-4{fill:none;stroke:#000;stroke-linecap:round;stroke-linejoin:round;stroke-width:4px;}</style></defs><title>Asset 27</title><g id="Layer_2" data-name="Layer 2"><g id="Layer_1-2" data-name="Layer 1"><circle class="cls-1" cx="112.05" cy="99.54" r="97.54"/><path class="cls-2" d="M112.05,4A95.54,95.54,0,1,1,16.51,99.54,95.65,95.65,0,0,1,112.05,4m0-4a99.54,99.54,0,1,0,99.54,99.54A99.55,99.55,0,0,0,112.05,0Z"/><circle class="cls-3" cx="112.05" cy="99.54" r="63"/><path class="cls-2" d="M112.05,38.54a61,61,0,1,1-61,61,61.07,61.07,0,0,1,61-61m0-4a65,65,0,1,0,65,65,65,65,0,0,0-65-65Z"/><path class="cls-1" d="M47,260.42a2,2,0,0,0-1.57-.75H3l27-64.16,67.78,29.11L68.35,287.25Z"/><path class="cls-2" d="M31,198.14l64,27.51L67.91,283.49,48.53,259.17a4,4,0,0,0-3.13-1.5H6l25-59.53m-2.13-5.26L0,261.67H45.4L68.79,291l31.64-67.42L28.89,192.88Z"/><path class="cls-1" d="M129.72,222.24l68.92-26.32,22.53,65.41-34-4.36h-.26a2,2,0,0,0-1.39.56l-30.42,29.53Z"/><path class="cls-2" d="M197.42,198.53l20.81,60.41L187.39,255a4.36,4.36,0,0,0-.51,0,4,4,0,0,0-2.78,1.13l-28.27,27.43-23.51-60.13,65.1-24.86m2.44-5.22-72.74,27.78,27.18,69.49L186.88,259l37.23,4.77-24.25-70.42Z"/><polyline class="cls-4" points="80.75 95.09 101.2 125.31 143.36 73.77"/></g></g></svg>