<svg xmlns="http://www.w3.org/2000/svg" viewBox="0 0 368.76 222.45"><defs><style>.cls-1{fill:#e45828;stroke:#3d3d3d;stroke-linecap:round;stroke-linejoin:round;stroke-width:4px;}</style></defs><title>Asset 33</title><g id="Layer_2" data-name="Layer 2"><g id="Layer_1-2" data-name="Layer 1"><path class="cls-1" d="M30,196.65l41.42,1.65c-1.52-53.18,42.13-97.3,94.36-96.66,51.38.63,93.56,44.36,92,96.66h41V179.5C288.7,114.23,233.74,65.32,169.61,62.9,101.83,60.34,40.88,110.39,30,179.5Z"/><path class="cls-1" d="M2,196.65C6.48,100,90.53,28.38,178.44,36.44c78.39,7.18,143.7,76.24,146.13,161.86h42.19v-23C360.35,75.81,275.64-.83,178.85,2.08,86,4.87,8.05,80,2,175.28Z"/><line class="cls-1" x1="48.86" y1="128.44" x2="83" y2="150.53"/><line class="cls-1" x1="119.1" y1="113.82" x2="97.96" y2="80.77"/><line class="cls-1" x1="165.78" y1="101.64" x2="164.44" y2="62.81"/><line class="cls-1" x1="231.25" y1="80.77" x2="210.24" y2="113.82"/><line class="cls-1" x1="281.38" y1="130.55" x2="245.74" y2="149.58"/><circle class="cls-1" cx="164.44" cy="196.65" r="23.8"/><circle class="cls-1" cx="164.44" cy="196.65" r="10.86"/><polyline class="cls-1" points="169.13 172.85 211.71 148.24 188.24 191.97"/></g></g></svg>