<svg xmlns="http://www.w3.org/2000/svg" viewBox="0 0 305.82 307.16"><defs><style>.cls-1{fill:#e45828;}.cls-1,.cls-3{stroke:#3d3d3d;stroke-linecap:round;stroke-linejoin:round;stroke-width:4px;}.cls-2{fill:#fff;}.cls-3{fill:none;}</style></defs><title>Asset 28</title><g id="Layer_2" data-name="Layer 2"><g id="Layer_1-2" data-name="Layer 1"><line class="cls-1" x1="106.07" y1="13.96" x2="119.46" y2="28.47"/><line class="cls-1" x1="145.92" y1="2" x2="146.23" y2="21.74"/><line class="cls-1" x1="195.13" y1="97.64" x2="211.91" y2="108.05"/><line class="cls-1" x1="97.22" y1="96.68" x2="79.2" y2="107.09"/><line class="cls-1" x1="96.6" y1="47.83" x2="79.82" y2="37.43"/><line class="cls-1" x1="183.06" y1="118.15" x2="199.84" y2="128.56"/><line class="cls-1" x1="91.1" y1="75.67" x2="74.32" y2="76.08"/><line class="cls-1" x1="221.78" y1="75.63" x2="202.04" y2="75.3"/><line class="cls-1" x1="108.77" y1="118.15" x2="93.16" y2="128.56"/><line class="cls-1" x1="211.91" y1="37.43" x2="195.13" y2="47.83"/><path class="cls-1" d="M128.55,154.6l35.33-1.16c1.45-7,2.4-25.29,5.31-35.16,1.35-4.59,9.56-16.31,12.26-20.06,17.85-24.82.21-47.15-6-52.11S162.52,37,155,35.56c-5.39-1-7.92-.91-8.91-.75-1-.16-3.52-.29-8.92.75C129.64,37,123,41.14,116.73,46.11s-23.88,27.29-6,52.11c2.69,3.75,10.91,15.47,12.26,20.06,3.08,10.49,4,30.49,5.58,36.32"/><path class="cls-2" d="M145.84,55.7h2.32a3.84,3.84,0,0,1,.76.08.68.68,0,0,1,.26.12.82.82,0,0,1,.09.47c0,.15,0,.3,0,.44s0,.4-.07.6c-.06.49-.14,1-.24,1.51l0,.08a1,1,0,0,0,.78,1.17l.08,0a18.12,18.12,0,0,1,3.58,1.12l.07,0a1.09,1.09,0,0,0,.39.08,1,1,0,0,0,.91-.58l0-.08q.19-.44.42-.87c.19-.37.39-.74.59-1.09a4,4,0,0,1,.38-.54.61.61,0,0,1,.21-.16l-.25-1,.3,1a2,2,0,0,1,.89.43c.6.42,3.13,2.26,3.71,2.7a3.46,3.46,0,0,1,.57.51.58.58,0,0,1,.13.26c0,.08-.06.29-.48.76s-.62.67-.95,1l-.55.53,0,0a1,1,0,0,0-.06,1.41l0,.06a18.38,18.38,0,0,1,2.24,3l0,.06a1,1,0,0,0,.86.49,1,1,0,0,0,.49-.13l.07,0c.32-.18.65-.36,1-.52s.66-.32,1-.47a2.49,2.49,0,0,1,.78-.23h.1c.08,0,.16.15.2.21a4.28,4.28,0,0,1,.31.69c.24.69,1.21,3.67,1.41,4.37a3,3,0,0,1,.17.81.42.42,0,0,1,0,.22.55.55,0,0,1-.23.15,3.26,3.26,0,0,1-.61.19c-.67.14-1.37.26-2.1.35h-.08a1,1,0,0,0-.88,1.1v.08a18,18,0,0,1,.12,2.07c0,.55,0,1.11-.08,1.68V80a1,1,0,0,0,.88,1.08h.08q1.14.14,2.19.36c.63.14.8.27.84.34a.43.43,0,0,1,0,.22,3,3,0,0,1-.16.81c-.2.7-1.17,3.67-1.41,4.37a4.71,4.71,0,0,1-.31.69.67.67,0,0,1-.2.21h-.1a2.64,2.64,0,0,1-.79-.23c-.62-.28-1.26-.6-1.9-.95l-.07,0a1,1,0,0,0-.49-.13,1,1,0,0,0-.87.51l0,.06a18.23,18.23,0,0,1-2.17,3.06l-.05.06a1,1,0,0,0,.07,1.39l.06.06a19.17,19.17,0,0,1,1.55,1.58,2.5,2.5,0,0,1,.43.58.41.41,0,0,1,.06.19.62.62,0,0,1-.14.25,3.85,3.85,0,0,1-.56.51c-.58.44-3.11,2.28-3.72,2.7a2,2,0,0,1-.88.43h-.05a.53.53,0,0,1-.21-.16,3.29,3.29,0,0,1-.38-.54,20.89,20.89,0,0,1-1-1.89l0-.07a1,1,0,0,0-.91-.58,1,1,0,0,0-.41.09l-.07,0a17.85,17.85,0,0,1-3.55,1.19l-.08,0a1,1,0,0,0-.76,1.18v.07a19.7,19.7,0,0,1,.33,2.19,3.15,3.15,0,0,1,0,.44.78.78,0,0,1-.09.47.48.48,0,0,1-.26.12,3.13,3.13,0,0,1-.75.08l-2.27,0-2.32,0a3.13,3.13,0,0,1-.75-.08.55.55,0,0,1-.27-.12.84.84,0,0,1-.08-.47c0-.15,0-.3,0-.44a21.21,21.21,0,0,1,.32-2.11v-.07a1,1,0,0,0-.78-1.18h-.08a19,19,0,0,1-3.58-1.12l-.07,0a1,1,0,0,0-.39-.08,1,1,0,0,0-.91.59l0,.07c-.32.69-.66,1.35-1,2a3,3,0,0,1-.38.55.49.49,0,0,1-.21.15h0a2.08,2.08,0,0,1-.89-.44c-.6-.42-3.13-2.25-3.71-2.7a3.78,3.78,0,0,1-.56-.5.63.63,0,0,1-.14-.27c0-.08.06-.29.48-.76s1-1,1.5-1.52l.06-.06a1,1,0,0,0,.05-1.41l-.05,0a19.93,19.93,0,0,1-2.24-3l0-.07a1,1,0,0,0-.85-.49,1,1,0,0,0-.49.13l-.07,0c-.67.37-1.33.71-2,1a2.63,2.63,0,0,1-.79.24.31.31,0,0,1-.1,0,.58.58,0,0,1-.2-.21,3.27,3.27,0,0,1-.3-.69c-.25-.69-1.21-3.67-1.42-4.36a3.05,3.05,0,0,1-.16-.82.37.37,0,0,1,0-.21c0-.07.21-.2.84-.34s1.38-.27,2.11-.36h.07a1,1,0,0,0,.88-1.11v-.08a17.89,17.89,0,0,1-.11-2.06c0-.55,0-1.12.07-1.69v-.08a1,1,0,0,0-.88-1.08h-.08c-.75-.09-1.49-.21-2.19-.36s-.8-.27-.84-.34a.41.41,0,0,1,0-.22,3.42,3.42,0,0,1,.16-.81c.21-.7,1.17-3.67,1.42-4.36a3.64,3.64,0,0,1,.31-.7.61.61,0,0,1,.19-.2.16.16,0,0,1,.1,0,2.37,2.37,0,0,1,.79.24c.38.16.77.35,1.15.54s.51.27.76.41l.06,0a1.11,1.11,0,0,0,.49.12,1,1,0,0,0,.87-.5l0-.07a18.28,18.28,0,0,1,2.18-3.06l.05-.06a1,1,0,0,0-.08-1.39l0-.05A21,21,0,0,1,130.59,63c-.42-.48-.49-.68-.48-.78a.5.5,0,0,1,.13-.25,4,4,0,0,1,.57-.51c.58-.44,3.11-2.28,3.71-2.69a2.08,2.08,0,0,1,.89-.44h.05a.44.44,0,0,1,.2.15,2.57,2.57,0,0,1,.38.55,19.47,19.47,0,0,1,1,1.88l0,.07a1,1,0,0,0,.91.59.86.86,0,0,0,.41-.1l.07,0A17.94,17.94,0,0,1,142,60.28l.07,0a1,1,0,0,0,.76-1.17V59a21.92,21.92,0,0,1-.33-2.19,3.15,3.15,0,0,1,0-.44,1.35,1.35,0,0,1,0-.31.44.44,0,0,1,.06-.16.62.62,0,0,1,.26-.12,3.84,3.84,0,0,1,.76-.08h2.26m.24,33.49a10.94,10.94,0,0,0,4.24-21,10.78,10.78,0,0,0-4.24-.86,10.95,10.95,0,1,0,0,21.89m-.24-34.49h-2.29a4.53,4.53,0,0,0-1,.11,1.45,1.45,0,0,0-.78.46,1.3,1.3,0,0,0-.27.58,2.87,2.87,0,0,0-.05.52c0,.18,0,.36,0,.54.08.77.2,1.53.35,2.29v.07l-.07,0A19.68,19.68,0,0,0,138,60.56l-.07,0,0-.07c-.31-.67-.65-1.33-1-2a4.23,4.23,0,0,0-.51-.72,1.51,1.51,0,0,0-.69-.44,1,1,0,0,0-.3,0h0A2.79,2.79,0,0,0,134,58c-.59.41-3.14,2.26-3.75,2.73a4.24,4.24,0,0,0-.73.67,1.42,1.42,0,0,0-.36.82s0,0,0,.07a2.35,2.35,0,0,0,.74,1.43,21.15,21.15,0,0,0,1.63,1.65l.06.06-.06,0a20.4,20.4,0,0,0-2.29,3.22l0,.07-.07,0-.78-.42c-.4-.2-.8-.39-1.21-.57a3.07,3.07,0,0,0-1.19-.32h0a1.22,1.22,0,0,0-.46.09,1.41,1.41,0,0,0-.68.6,4.59,4.59,0,0,0-.41.9c-.24.68-1.21,3.67-1.43,4.41a4.18,4.18,0,0,0-.2,1.09,1.28,1.28,0,0,0,.2.75,2.2,2.2,0,0,0,1.47.79c.76.16,1.52.29,2.29.38h.07v.08a17.54,17.54,0,0,0-.08,1.78,19.46,19.46,0,0,0,.12,2.17v.08h-.08c-.74.09-1.48.21-2.2.37a2.28,2.28,0,0,0-1.48.78,1.4,1.4,0,0,0-.19.75,3.87,3.87,0,0,0,.2,1.1c.21.69,1.18,3.68,1.43,4.41a4.59,4.59,0,0,0,.41.9,1.44,1.44,0,0,0,.67.6,1.27,1.27,0,0,0,.47.09h0a3.25,3.25,0,0,0,1.19-.32,22.23,22.23,0,0,0,2.07-1l.07,0,0,.07a19.28,19.28,0,0,0,2.35,3.17l.06.06-.06,0q-.83.77-1.56,1.59a2.35,2.35,0,0,0-.74,1.43v.07a1.43,1.43,0,0,0,.37.83,4.18,4.18,0,0,0,.72.67c.58.44,3.12,2.28,3.76,2.72a2.74,2.74,0,0,0,1.45.62h0a1.55,1.55,0,0,0,.29,0,1.46,1.46,0,0,0,.69-.44,4.07,4.07,0,0,0,.51-.72,22.31,22.31,0,0,0,1.07-2.06l0-.07.07,0a19.24,19.24,0,0,0,3.77,1.19h.08v.08a20.48,20.48,0,0,0-.33,2.2,4.89,4.89,0,0,0,0,.54,1.69,1.69,0,0,0,.32,1.11,1.43,1.43,0,0,0,.77.45,4.62,4.62,0,0,0,1,.11l2.34,0,2.29,0a4.53,4.53,0,0,0,1-.11,1.46,1.46,0,0,0,.78-.45,1.69,1.69,0,0,0,.32-1.11,4.89,4.89,0,0,0,0-.54,19.79,19.79,0,0,0-.35-2.29v-.07l.07,0a19,19,0,0,0,3.75-1.26l.07,0,0,.07a21.71,21.71,0,0,0,1,2,3.81,3.81,0,0,0,.51.73,1.42,1.42,0,0,0,.69.44,1.36,1.36,0,0,0,.29,0h0a2.79,2.79,0,0,0,1.45-.61c.6-.41,3.14-2.26,3.75-2.73a4.63,4.63,0,0,0,.73-.66,1.43,1.43,0,0,0,.37-.83v-.07a1.32,1.32,0,0,0-.16-.61,3.5,3.5,0,0,0-.58-.82,21.15,21.15,0,0,0-1.63-1.65l-.05,0,.05-.06A19.18,19.18,0,0,0,163,87.83l0-.07.07,0a21.67,21.67,0,0,0,2,1,3.11,3.11,0,0,0,1.19.32h0a1.26,1.26,0,0,0,.47-.08,1.49,1.49,0,0,0,.67-.6,4.59,4.59,0,0,0,.41-.9c.24-.68,1.21-3.67,1.43-4.41a3.87,3.87,0,0,0,.2-1.1,1.38,1.38,0,0,0-.19-.75,2.2,2.2,0,0,0-1.48-.78,22.12,22.12,0,0,0-2.28-.38h-.08V80c.05-.58.08-1.18.08-1.77a19.49,19.49,0,0,0-.13-2.18V76h.07c.74-.09,1.48-.21,2.2-.37a4.22,4.22,0,0,0,.81-.24,1.51,1.51,0,0,0,.67-.54,1.38,1.38,0,0,0,.2-.75,3.89,3.89,0,0,0-.21-1.1c-.2-.69-1.17-3.68-1.43-4.41a4.59,4.59,0,0,0-.41-.9,1.49,1.49,0,0,0-.67-.6,1.26,1.26,0,0,0-.47-.08h0a3,3,0,0,0-1.18.32c-.36.15-.7.31-1,.48s-.7.36-1,.55l-.06,0,0-.07a19.77,19.77,0,0,0-2.36-3.17l-.06-.06.06,0c.2-.18.39-.36.57-.55.35-.33.68-.68,1-1a2.36,2.36,0,0,0,.73-1.43v-.07h0a1.48,1.48,0,0,0-.36-.83,4.15,4.15,0,0,0-.73-.66c-.57-.44-3.12-2.29-3.75-2.73a2.79,2.79,0,0,0-1.46-.61h0a1.53,1.53,0,0,0-.3,0,1.46,1.46,0,0,0-.69.44,4.31,4.31,0,0,0-.51.73c-.22.37-.43.75-.62,1.14s-.3.6-.44.91l0,.07-.07,0A18.56,18.56,0,0,0,150,59.22l-.08,0,0-.08c.1-.52.19-1,.26-1.58,0-.2.05-.41.07-.62s0-.36,0-.54a1.71,1.71,0,0,0-.32-1.1,1.45,1.45,0,0,0-.78-.46,4.6,4.6,0,0,0-1-.11Zm.24,33.49A9.95,9.95,0,1,1,156,78.25a9.88,9.88,0,0,1-9.94,9.94Z"/><path class="cls-3" d="M76.69,305.16V278.38s-.07-13.22-15.35-25.4-46.81-42.75-46.81-42.75S3.72,199.83,2,184.14V79.3s4.56-9.92,13.49-8.83S35,78.73,36.87,93V153.5s1.2,5.79,6.5,7.51c0,0-4.39,5.23-.36,12.35l42.35,44.78"/><path class="cls-3" d="M43.68,160.84s4.72-4.38,10.57-3.14a28.57,28.57,0,0,1,10,4.27l64.54,56.21s7.22,7.43,7.53,14.76,0,59.38,0,59.38"/><path class="cls-3" d="M229.13,305.16V278.38s.07-13.22,15.35-25.4,46.81-42.75,46.81-42.75,10.81-10.4,12.53-26.09V79.3s-4.56-9.92-13.5-8.83S270.86,78.73,269,93V153.5s-1.2,5.79-6.51,7.51c0,0,4.39,5.23.37,12.35l-42.36,44.78"/><path class="cls-3" d="M262.14,160.84s-4.72-4.38-10.57-3.14a28.57,28.57,0,0,0-10,4.27l-64.54,56.21s-7.23,7.43-7.54,14.76,0,59.38,0,59.38"/><line class="cls-1" x1="129.64" y1="160.68" x2="162.2" y2="160.68"/><line class="cls-1" x1="130.23" y1="165.73" x2="162.18" y2="165.73"/><line class="cls-1" x1="133.61" y1="170.62" x2="157" y2="170.62"/><line class="cls-1" x1="175.5" y1="28.47" x2="183.06" y2="8.89"/></g></g></svg>