<svg xmlns="http://www.w3.org/2000/svg" viewBox="0 0 188.3 215.48"><defs><style>.cls-1{fill:#e45828;}.cls-2{fill:#3d3d3d;}.cls-3,.cls-4,.cls-5{fill:none;stroke-linecap:round;stroke-linejoin:round;stroke-width:4px;}.cls-3{stroke:#fff;}.cls-4{stroke:#3d3d3d;}.cls-5{stroke:#000;}</style></defs><title>Asset 21</title><g id="Layer_2" data-name="Layer 2"><g id="Layer_1-2" data-name="Layer 1"><path class="cls-1" d="M101.55,137c-.8,0-3.38,0-5.23,0V127a2,2,0,0,0-1.64-2,38.25,38.25,0,0,1-15-6.19,2,2,0,0,0-1.13-.36,2,2,0,0,0-1.44.61l-6.84,7.05c-2.15-2.09-5.79-5.79-7.83-7.92l6.91-7a2,2,0,0,0,.23-2.54,39.33,39.33,0,0,1-6.25-15.09,2,2,0,0,0-2-1.63l-9.77.09c0-2-.06-5-.06-5.91s0-3.45,0-5.32l9.73,0a2,2,0,0,0,2-1.65A39.19,39.19,0,0,1,69.46,64.1a2,2,0,0,0-.25-2.53l-7-7c2-2.14,5.68-5.83,7.83-7.94l6.86,7a2,2,0,0,0,2.58.23,38.24,38.24,0,0,1,14.9-6.32,2,2,0,0,0,1.62-2l-.1-9.89c1.94,0,4.67-.06,5.71-.06h.12c.78,0,3.37,0,5.23,0l0,9.86a2,2,0,0,0,1.65,2,38.25,38.25,0,0,1,15,6.19,2,2,0,0,0,1.13.36,2,2,0,0,0,1.44-.61L133,46.4c2.14,2.09,5.79,5.79,7.83,7.92l-6.92,7a2,2,0,0,0-.23,2.54,39.19,39.19,0,0,1,6.26,15.09,2,2,0,0,0,2,1.63l9.79-.09c0,2,.05,4.87.05,5.91,0,.78,0,3.42-.05,5.32l-9.72,0a2,2,0,0,0-2,1.65,39.35,39.35,0,0,1-6.13,15.15,2,2,0,0,0,.27,2.56l7.09,6.77c-2.05,2.17-5.68,5.88-7.8,8l-7-6.87a2,2,0,0,0-1.39-.57,2,2,0,0,0-1.15.36A38.24,38.24,0,0,1,108.9,125a2,2,0,0,0-1.62,2l.09,9.9c-1.86,0-4.48.06-5.68.06Z"/><path class="cls-2" d="M101.64,37.63h.09l3.23,0,0,7.88a4,4,0,0,0,3.29,3.94,36.22,36.22,0,0,1,14.17,5.88,4,4,0,0,0,5.14-.51l5.44-5.6c1.56,1.55,3.47,3.48,5,5.06l-5.54,5.59A4,4,0,0,0,132,65a37.14,37.14,0,0,1,5.94,14.33,4,4,0,0,0,3.93,3.26h0l7.77-.07c0,1.58,0,3.19,0,3.89s0,2,0,3.31h-7.74A4,4,0,0,0,138,93a37.2,37.2,0,0,1-5.82,14.38,4,4,0,0,0,.55,5.13l5.65,5.39c-1.54,1.59-3.43,3.53-5,5.08l-5.63-5.49a4,4,0,0,0-2.79-1.14,4,4,0,0,0-2.3.72,36.32,36.32,0,0,1-14.12,6,4,4,0,0,0-3.25,4l.07,7.91-3.69,0h-.11l-3.23,0v-7.88a4,4,0,0,0-3.28-4,36.2,36.2,0,0,1-14.17-5.87,4,4,0,0,0-5.15.51l-5.43,5.6c-1.57-1.55-3.47-3.48-5-5.06l5.54-5.59a4,4,0,0,0,.46-5.08,37.27,37.27,0,0,1-5.93-14.33A4,4,0,0,0,61.42,90h0l-7.76.07c0-1.58,0-3.19,0-3.89s0-2,0-3.31h7.75a4,4,0,0,0,3.94-3.3,37.2,37.2,0,0,1,5.82-14.38,4,4,0,0,0-.5-5.07L65,54.59c1.52-1.58,3.43-3.51,5-5.07l5.46,5.54a4,4,0,0,0,2.85,1.19,4.06,4.06,0,0,0,2.3-.72,36.25,36.25,0,0,1,14.12-6,4,4,0,0,0,3.25-4l-.08-7.91,3.72,0h0m0-4c-1.38,0-6.59,0-7.75.12L94,45.6a40.57,40.57,0,0,0-15.67,6.65l-8.25-8.37c-1.65,1.49-9.19,9.12-10.64,10.8L67.8,63A41.45,41.45,0,0,0,61.36,78.9l-11.68,0c-.06,1-.09,6.29-.09,7.31,0,1.24,0,6.73.12,7.94L61.42,94A41.64,41.64,0,0,0,68,109.87l-8.26,8.34c1.46,1.67,9,9.31,10.66,10.78l8.21-8.47A40.44,40.44,0,0,0,94.33,127l0,11.81c1,.06,6.22.1,7.23.1h.12c1.42,0,6.57,0,7.73-.12L109.28,127A40.47,40.47,0,0,0,125,120.33l8.42,8.22c1.65-1.48,9.16-9.15,10.61-10.83l-8.51-8.13a41.47,41.47,0,0,0,6.45-15.91l11.67,0c.06-1,.1-6.29.1-7.31,0-1.24,0-6.73-.11-7.94l-11.73.11a41.33,41.33,0,0,0-6.57-15.85l8.27-8.34c-1.47-1.67-9-9.31-10.67-10.78l-8.21,8.47a40.38,40.38,0,0,0-15.73-6.52l0-11.82c-1,0-6.22-.09-7.23-.09Z"/><path class="cls-3" d="M112.35,109.3a24.81,24.81,0,0,1-10.71,2.42A25.48,25.48,0,0,1,80.24,73"/><path class="cls-3" d="M92.22,62.7a24.83,24.83,0,0,1,9.42-1.84,25.49,25.49,0,0,1,23.07,35.53"/><path class="cls-4" d="M172.55,213.48a86.56,86.56,0,0,1,0-66.5c3.42-6.5,25.12-49.44,5.91-93.39a97.44,97.44,0,0,0-27.32-35.87,88.07,88.07,0,0,0-100.44,0A71.52,71.52,0,0,0,31.13,41.63a72.7,72.7,0,0,0-7.76,33.62,57.47,57.47,0,0,1-4.8,26.9,56.71,56.71,0,0,1-14,19.24,8,8,0,0,0-2.22,8,8,8,0,0,0,8.31,5.42h10.9a19.85,19.85,0,0,1,.92,8.41c-.39,3.31-1.5,4.56-.92,7.09.45,2,1.63,3.28,3.69,5.42a35.48,35.48,0,0,0,7.57,6A17.39,17.39,0,0,0,24.85,181a17.09,17.09,0,0,0,14,12.33,111,111,0,0,0,18.46-1.4,112.09,112.09,0,0,0,27-7.94"/><path class="cls-5" d="M65.1,213.48s2.21-20.07,0-23.11"/></g></g></svg>