<svg xmlns="http://www.w3.org/2000/svg" viewBox="0 0 221.45 238.26"><defs><style>.cls-1{fill:#e45828;}.cls-2{fill:#3d3d3d;}.cls-3{fill:none;stroke:#fff;stroke-linecap:round;stroke-linejoin:round;stroke-width:4px;}</style></defs><title>Asset 26</title><g id="Layer_2" data-name="Layer 2"><g id="Layer_1-2" data-name="Layer 1"><rect class="cls-1" x="4.72" y="93.52" width="214.73" height="142.74" rx="8"/><path class="cls-2" d="M211.45,95.52a6,6,0,0,1,6,6V228.26a6,6,0,0,1-6,6H12.72a6,6,0,0,1-6-6V101.52a6,6,0,0,1,6-6H211.45m0-4H12.72a10,10,0,0,0-10,10V228.26a10,10,0,0,0,10,10H211.45a10,10,0,0,0,10-10V101.52a10,10,0,0,0-10-10Z"/><path class="cls-1" d="M10.88,79.82a1.66,1.66,0,0,1-1.16-.48,20.9,20.9,0,0,1-4-5.47C4,70.41,3.85,67.53,3.55,62.31c-.13-2.27-.28-4.84-.59-8-.24-2.54-.56-5.1-.94-7.61A1.58,1.58,0,0,1,3.28,44.9l46.23-9.34a1.63,1.63,0,0,1,.31,0,1.57,1.57,0,0,1,1.07.42L78.18,60.82a1.55,1.55,0,0,1,.47,1.57,1.57,1.57,0,0,1-1.16,1.16L11.25,79.78A1.55,1.55,0,0,1,10.88,79.82Z"/><path class="cls-2" d="M49.9,37.52h0m-.2,0L76.27,61.79,44.2,69.64,11,77.78A18.56,18.56,0,0,1,7.52,73C6,69.89,5.83,67.15,5.55,62.2c-.14-2.29-.28-4.88-.6-8.09-.23-2.44-.54-4.91-.9-7.33L49.7,37.56m.12-4a3.42,3.42,0,0,0-.71.07L2.88,42.94A3.58,3.58,0,0,0,0,47c.33,2.16.66,4.69.93,7.5,1,10.55.26,14.83,3,20.27a22.39,22.39,0,0,0,4.38,6,3.65,3.65,0,0,0,2.56,1.06,3.44,3.44,0,0,0,.84-.1L78,65.49a3.59,3.59,0,0,0,1.57-6.14L52.24,34.47a3.59,3.59,0,0,0-2.42-.94Z"/><path class="cls-1" d="M115,58.5A1.62,1.62,0,0,1,113.8,58L88,28.12a1.54,1.54,0,0,1-.31-1.54,1.58,1.58,0,0,1,1.18-1L125,17.81a1.86,1.86,0,0,1,.33,0,1.59,1.59,0,0,1,1.13.47l28.2,28.2A1.6,1.6,0,0,1,155.1,48a1.55,1.55,0,0,1-1.16,1.11l-38.56,9.35A1.5,1.5,0,0,1,115,58.5Z"/><path class="cls-2" d="M125.45,19.77h0m-.22,0,27.53,27.53-37.61,9.12L90,27.34l35.25-7.53m.13-4a3.82,3.82,0,0,0-.75.08L88.47,23.57a3.59,3.59,0,0,0-2,5.86l25.79,29.83a3.62,3.62,0,0,0,3.57,1.14l38.55-9.34a3.59,3.59,0,0,0,1.69-6l-28.2-28.2a3.61,3.61,0,0,0-2.54-1.06Z"/><path class="cls-1" d="M191.8,40.48a1.56,1.56,0,0,1-1.09-.43L161.58,12.8a1.59,1.59,0,0,1,.77-2.72l39.36-8A1.84,1.84,0,0,1,202,2a1.58,1.58,0,0,1,1.52,1.15L212.19,33a1.59,1.59,0,0,1-1.09,2l-18.86,5.47A1.67,1.67,0,0,1,191.8,40.48Z"/><path class="cls-2" d="M202.12,4h0m-.37.08,8.4,29.08L191.9,38.43,163.52,11.88l38.23-7.81M202,0a3.68,3.68,0,0,0-.73.07L162,8.12a3.6,3.6,0,0,0-1.74,6.15l29.13,27.24a3.62,3.62,0,0,0,2.46,1,3.83,3.83,0,0,0,1-.14l18.86-5.46a3.6,3.6,0,0,0,2.45-4.45L205.48,2.6A3.58,3.58,0,0,0,202,0Z"/><line class="cls-3" x1="40.35" y1="145.41" x2="186.66" y2="145.41"/><line class="cls-3" x1="40.35" y1="194.35" x2="186.66" y2="194.35"/></g></g></svg>